<?xml version="1.0" encoding="utf-8"?>
<!-- Generator: Adobe Illustrator 15.0.2, SVG Export Plug-In  -->
<!DOCTYPE svg PUBLIC "-//W3C//DTD SVG 1.1//EN" "http://www.w3.org/Graphics/SVG/1.1/DTD/svg11.dtd" [
	<!ENTITY ns_flows "http://ns.adobe.com/Flows/1.0/">
]>
<svg version="1.1"
	 xmlns="http://www.w3.org/2000/svg" xmlns:xlink="http://www.w3.org/1999/xlink" xmlns:a="http://ns.adobe.com/AdobeSVGViewerExtensions/3.0/"
	 x="0px" y="0px" width="300px" height="300px" viewBox="0 0 300 300" overflow="visible" enable-background="new 0 0 300 300"
	 xml:space="preserve">
<defs>
</defs>
<path fill="#333333" d="M155.503,155.333H40.836c-8.284,0-15,6.716-15,15V285c0,8.284,6.716,15,15,15h114.667
	c8.284,0,15-6.716,15-15V170.333C170.503,162.049,163.788,155.333,155.503,155.333z M165.837,281.302
	c0,7.749-6.283,14.031-14.032,14.031H44.535c-7.75,0-14.032-6.282-14.032-14.031v-97.967h135.334V281.302z"/>
<path fill="#333333" d="M260.921,134h-0.026c0.015,0,0.026-0.152,0.026-0.219c0-0.414-0.336-0.781-0.751-0.781h-11.646
	c-0.415,0-0.751,0.367-0.751,0.781c0,0.066,0.011,0.219,0.027,0.219h-39.66c-7.262,0-12.139,5.15-12.139,12.413v9.658
	c-1,0.146-1,0.476-1,0.86v5.823c0,0.385,0,0.714,1,0.86v8.531c-1,0-1,0.252-1,0.563v4.508c0,0.312,0,0.563,1,0.563v7.89
	c-1,0-1,0.252-1,0.563v4.508c0,0.312,0,0.563,1,0.563v95.233c0,7.262,4.877,13.461,12.139,13.461h52.782
	c7.262,0,14.08-6.199,14.08-13.461V146.413C275,139.15,268.183,134,260.921,134z M234.53,140.215c0.76,0,1.377,0.616,1.377,1.377
	c0,0.762-0.618,1.378-1.377,1.378c-0.761,0-1.378-0.616-1.378-1.378C233.152,140.831,233.769,140.215,234.53,140.215z M241,148
	c0,0.553-0.448,1-1,1h-11c-0.552,0-1-0.447-1-1l0,0c0-0.553,0.448-1,1-1h11C240.553,147,241,147.447,241,148L241,148z
	 M234.53,294.742c-4.149,0-7.513-3.363-7.513-7.514c0-4.149,3.364-7.514,7.513-7.514c4.149,0,7.513,3.364,7.513,7.514
	C242.043,291.379,238.679,294.742,234.53,294.742z M269,277h-68V156h68V277z"/>
<path fill="none" d="M213.667,137.834H258c8.284,0,15,8.697,15,19.427v9.091h7.567c8.011,0,14.508-6.274,14.508-14.015V28.667H4.925
	v123.67c0,7.74,6.495,14.015,14.507,14.015h179.235v-9.091C198.667,146.531,205.383,137.834,213.667,137.834z"/>
<path fill="#333333" d="M285,0H15C6.716,0,0,6.716,0,15v142c0,8.284,6.716,15,15,15h183.704c-0.011-0.31-0.036-0.614-0.036-0.928
	v-4.721H19.433c-8.012,0-14.507-6.274-14.507-14.015V28.667h290.15v123.67c0,7.74-6.497,14.015-14.508,14.015H273v4.721
	c0,0.313-0.025,0.618-0.036,0.928H285c8.283,0,15-6.716,15-15V15C300,6.716,293.284,0,285,0z"/>
</svg>
