<?xml version="1.0" encoding="utf-8"?>
<!-- Generator: Adobe Illustrator 15.0.2, SVG Export Plug-In  -->
<!DOCTYPE svg PUBLIC "-//W3C//DTD SVG 1.1//EN" "http://www.w3.org/Graphics/SVG/1.1/DTD/svg11.dtd" [
	<!ENTITY ns_flows "http://ns.adobe.com/Flows/1.0/">
]>
<svg version="1.1"
	 xmlns="http://www.w3.org/2000/svg" xmlns:xlink="http://www.w3.org/1999/xlink" xmlns:a="http://ns.adobe.com/AdobeSVGViewerExtensions/3.0/"
	 x="0px" y="0px" width="100px" height="135px" viewBox="-3.538 -0.563 100 135"
	 overflow="visible" enable-background="new -3.538 -0.563 100 135" xml:space="preserve">
<defs>
</defs>
<g>
	<g>
		<path fill="#333333" d="M2.417,79.633c6.597-0.121,13.919,2.031,20.167,5.552c15.51,8.739,20.526,26.382,20.424,43.194
			c-0.003,0.254-0.007,0.509-0.011,0.763c-0.047,3.299,4.644,3.119,5,0c0.028-0.245,0.121-0.911-0.014,0.076
			c0.076-0.555,0.163-1.107,0.254-1.659c0.309-1.88,0.692-3.747,1.121-5.603c1.319-5.714,3.15-11.342,5.641-16.655
			c2.959-6.315,6.903-12.171,12.254-16.701c5.91-5.004,13.443-7.179,21.102-6.958c3.227,0.093,3.217-4.907,0-5
			c-8.565-0.247-16.78,2.253-23.547,7.547c-5.974,4.674-10.416,11.03-13.742,17.789c-4.139,8.41-7.001,17.829-8.068,27.164
			c1.667,0,3.333,0,5,0c0.253-17.796-4.779-35.97-20.055-46.505c-7.182-4.954-16.293-7.812-25.026-8.001
			c-0.166-0.004-0.333-0.006-0.499-0.003C-0.803,74.691-0.809,79.692,2.417,79.633L2.417,79.633z"/>
	</g>
</g>
<g>
	<g>
		<path fill="#333333" d="M47.908,129.807c1.437-10.246,2.273-20.595,2.885-30.918c1.243-20.97,1.257-42.183-1.525-63.035
			c-1.575-11.815-4.095-23.523-8.745-34.536c-1.25-2.961-5.556-0.41-4.317,2.523c8.187,19.389,9.81,41.481,10.27,62.285
			c0.394,17.814-0.52,35.68-2.35,53.4c-0.24,2.33-0.501,4.657-0.788,6.981c-0.078,0.636-0.159,1.271-0.243,1.907
			c-0.094,0.715,0.093-0.666-0.009,0.062C42.644,131.629,47.461,132.988,47.908,129.807L47.908,129.807z"/>
	</g>
</g>
</svg>
