<?xml version="1.0" encoding="utf-8"?>
<!-- Generator: Adobe Illustrator 15.0.2, SVG Export Plug-In  -->
<!DOCTYPE svg PUBLIC "-//W3C//DTD SVG 1.1//EN" "http://www.w3.org/Graphics/SVG/1.1/DTD/svg11.dtd" [
	<!ENTITY ns_flows "http://ns.adobe.com/Flows/1.0/">
]>
<svg version="1.1"
	 xmlns="http://www.w3.org/2000/svg" xmlns:xlink="http://www.w3.org/1999/xlink" xmlns:a="http://ns.adobe.com/AdobeSVGViewerExtensions/3.0/"
	 x="0px" y="0px" width="640px" height="195px" viewBox="-0.009 0.055 640 195"
	 overflow="visible" enable-background="new -0.009 0.055 640 195" xml:space="preserve">
<defs>
</defs>
<path fill="#5AC6FF" d="M639.991,97.572c0-8.525-5-16.407-13.443-22.774c1.463-10.465-0.573-19.577-6.611-25.603
	c-4.782-4.795-11.504-7.062-19.305-7.062c-2.035,0-4.126,0.15-6.298,0.451c-6.353-8.43-14.236-13.43-22.761-13.43
	c-8.538,0-16.422,5-22.788,13.43c-2.158-0.301-4.248-0.451-6.271-0.451c-7.814,0-14.535,2.268-19.332,7.062
	c-6.038,6.025-8.074,15.138-6.611,25.603c-8.43,6.367-13.416,14.249-13.416,22.774c0,8.539,4.986,16.422,13.416,22.774
	c-1.463,10.465,0.573,19.577,6.611,25.602c4.797,4.795,11.518,7.063,19.332,7.063c2.022,0,4.112-0.15,6.271-0.451
	c6.366,8.443,14.25,13.43,22.788,13.43c8.524,0,16.408-4.986,22.761-13.43c2.172,0.301,4.263,0.451,6.298,0.451
	c7.801,0,14.522-2.269,19.305-7.063c6.038-6.024,8.074-15.137,6.611-25.602C634.991,113.994,639.991,106.111,639.991,97.572z
	 M605.099,84.538l-0.245,0.411c-0.601,0.97-1.407,1.804-2.364,2.418l-0.368,0.245c-6.367,4.222-23.689,18.294-27.214,32.611
	l-0.192,0.765c-0.437,1.817-1.517,3.402-3.047,4.453l-0.642,0.452c-1.038,0.724-3.88,2.404-7.731,2.404
	c-2.843,0-5.561-0.915-7.802-2.624l-0.313-0.232c-0.766-0.572-1.421-1.284-1.913-2.103l-0.191-0.314
	c-2.787-4.495-8.252-11.709-11.709-13.676l-0.572-0.342c-1.381-0.778-2.474-1.981-3.129-3.429l-0.287-0.602
	c-1.271-2.787-1.857-7.172,0.369-11.107l0.983-1.734c1.38-2.459,3.962-3.867,6.626-3.867c1.134,0,2.268,0.261,3.361,0.793
	l10.819,5.342c5.684-6.53,16.08-16.503,32.502-25.738l1.488-0.847c1.175-0.656,2.459-0.971,3.729-0.971
	c2.132,0,4.235,0.902,5.725,2.596l1.12,1.284C606.861,73.869,608.241,79.375,605.099,84.538z"/>
<path fill="#5AC6FF" d="M135.169,45.152c0,5.901-0.806,10.942-2.418,15.096c-1.626,4.153-3.401,8.075-5.342,11.763
	c-1.94,3.702-3.716,7.486-5.328,11.367c-1.612,3.866-2.432,8.442-2.432,13.703c0,3.784,0.628,7.281,1.872,10.464
	c1.257,3.184,2.609,6.436,4.085,9.769c1.475,3.319,2.841,6.817,4.098,10.52c1.244,3.688,1.858,7.95,1.858,12.746
	c0,7.377-1.612,14.372-4.85,20.971c-3.224,6.599-7.882,12.364-13.976,17.31s-13.607,8.867-22.515,11.79
	c-8.907,2.896-19.044,4.358-30.397,4.358c-9.331,0-17.678-0.983-25.07-2.923c-7.391-1.941-13.634-4.563-18.757-7.884
	c-5.123-3.319-9.071-7.281-11.844-11.844C1.38,167.794,0,162.875,0,157.615c0-8.129,2.049-14.891,6.161-20.302
	c4.112-5.396,9.386-9.74,15.848-13.019c6.462-3.279,13.621-5.588,21.476-6.927c7.842-1.339,15.506-1.995,22.993-1.995
	c4.25,0,8.279,0.178,12.118,0.533c3.826,0.383,7.364,0.889,10.588,1.544c-0.178-1.121-0.273-2.24-0.273-3.402
	c0-1.161,0-2.377,0-3.661c0-4.904,1.243-10.479,3.743-16.763c-3.607,2.404-7.732,4.289-12.405,5.684
	c-4.659,1.379-10.451,2.076-17.378,2.076c-5.451,0-10.656-0.901-15.656-2.705c-4.973-1.804-9.386-4.55-13.225-8.238
	c-3.825-3.701-6.899-8.333-9.208-13.921s-3.456-12.214-3.456-19.878c0-7.104,1.352-14.058,4.084-20.848
	c2.719-6.776,6.79-12.829,12.187-18.144C42.993,12.35,49.688,8.074,57.68,4.85C65.658,1.611,74.962,0,85.591,0
	c5.438,0,10.683,0.629,15.711,1.871c5.042,1.244,9.672,3.115,13.921,5.602h41.272l-1.94,13.443
	c-0.833,5.629-3.511,9.182-8.033,10.656l-12.187,4.153C134.896,38.771,135.169,41.914,135.169,45.152z M92.517,143.898
	c0-0.56,0-1.119,0-1.652c0-0.561-0.054-1.065-0.15-1.544c-4.699-0.724-9.017-1.284-12.951-1.652
	c-3.921-0.369-7.5-0.547-10.724-0.547c-4.987,0-9.263,0.354-12.815,1.093c-3.552,0.751-6.462,1.748-8.73,2.992
	c-2.254,1.229-3.894,2.719-4.905,4.412c-1.024,1.722-1.53,3.498-1.53,5.342c0,4.714,1.735,8.266,5.191,10.671
	c3.47,2.403,9.303,3.605,17.528,3.605c4.249,0,8.17-0.56,11.763-1.666c3.607-1.121,6.667-2.664,9.208-4.646
	c2.541-1.98,4.522-4.357,5.97-7.131C91.793,150.402,92.517,147.301,92.517,143.898z M75.344,76.451c3.402,0,6.38-0.874,8.921-2.637
	c2.542-1.748,4.659-4.03,6.38-6.858c1.708-2.814,2.992-5.97,3.88-9.481c0.86-3.511,1.312-7.063,1.312-10.669
	c0-5.998-1.244-10.657-3.744-13.99c-2.486-3.319-6.325-4.986-11.489-4.986c-3.416,0-6.407,0.806-8.935,2.432
	c-2.542,1.612-4.645,3.757-6.298,6.435c-1.667,2.678-2.91,5.779-3.743,9.276c-0.833,3.511-1.257,7.159-1.257,10.943
	c0,6.094,1.257,10.875,3.743,14.345C66.614,74.716,70.344,76.451,75.344,76.451z"/>
<path fill="#5AC6FF" d="M153.216,145.84l11.64-95.756h14.769c2.951,0,5.273,0.696,6.926,2.077c1.667,1.393,2.487,3.647,2.487,6.79
	v10.9c3.703-6.529,7.691-11.543,12.009-15.055c4.303-3.511,8.771-5.273,13.388-5.273c2.582,0,5.137,0.588,7.664,1.763l-5.164,26.504
	c-3.142-1.366-6.134-2.036-8.962-2.036c-4.741,0-8.935,2.146-12.61,6.422c-3.661,4.276-6.626,11.147-8.908,20.629l-5.164,43.035
	H153.216z"/>
<path fill="#5AC6FF" d="M298.373,145.84h-15.329c-1.79,0-3.279-0.232-4.481-0.698c-1.202-0.464-2.159-1.092-2.87-1.898
	c-0.696-0.792-1.202-1.748-1.461-2.855c-0.287-1.105-0.423-2.309-0.423-3.606v-6.83c-3.935,5.423-8.32,9.658-13.115,12.746
	c-4.795,3.073-10.096,4.604-15.875,4.604c-3.457,0-6.776-0.683-9.973-2.062c-3.197-1.395-6.039-3.483-8.498-6.284
	s-4.44-6.381-5.902-10.698c-1.489-4.345-2.227-9.467-2.227-15.383c0-8.688,1.584-16.913,4.754-24.7s7.61-14.604,13.293-20.451
	c5.697-5.848,12.459-10.493,20.274-13.949c7.814-3.442,16.394-5.163,25.766-5.163c4.549,0,9.167,0.313,13.839,0.914
	c4.686,0.628,9.304,1.735,13.853,3.334L298.373,145.84z M256.253,124.69c2.104,0,4.126-0.779,6.107-2.363
	c1.967-1.558,3.826-3.688,5.588-6.421c1.749-2.705,3.36-5.875,4.836-9.495c1.489-3.634,2.746-7.515,3.798-11.64l3.319-26.49h-1.667
	c-4.672,0-8.935,1.039-12.787,3.128c-3.839,2.104-7.146,4.946-9.919,8.54c-2.773,3.605-4.918,7.801-6.421,12.568
	c-1.516,4.754-2.268,9.851-2.268,15.273c0,3.088,0.246,5.697,0.738,7.855c0.505,2.146,1.161,3.895,1.981,5.206
	c0.833,1.324,1.831,2.308,2.964,2.923S254.9,124.69,256.253,124.69z"/>
<path fill="#5AC6FF" d="M381.839,70.222c-0.874,1.106-1.666,1.898-2.404,2.39c-0.738,0.493-1.722,0.739-2.965,0.739
	c-1.229,0-2.445-0.273-3.634-0.834c-1.203-0.547-2.5-1.175-3.88-1.886c-1.394-0.71-2.951-1.338-4.713-1.898
	c-1.763-0.547-3.771-0.82-6.053-0.82c-4.235,0-7.282,0.807-9.085,2.445c-1.817,1.626-2.733,3.73-2.733,6.325
	c0,1.654,0.52,3.074,1.53,4.236c1.012,1.175,2.351,2.227,4.017,3.142c1.668,0.93,3.553,1.776,5.67,2.541
	c2.132,0.779,4.304,1.64,6.517,2.582c2.214,0.956,4.386,2.05,6.503,3.279c2.132,1.229,4.018,2.746,5.684,4.535
	c1.666,1.776,3.006,3.907,4.017,6.367c1.011,2.459,1.53,5.382,1.53,8.771c0,4.795-0.956,9.331-2.869,13.62
	c-1.912,4.276-4.645,7.992-8.225,11.162c-3.565,3.169-7.883,5.696-12.965,7.582c-5.081,1.871-10.793,2.801-17.132,2.801
	c-3.005,0-5.983-0.301-8.948-0.916c-2.951-0.614-5.738-1.434-8.36-2.486c-2.61-1.038-4.987-2.295-7.146-3.743
	c-2.159-1.447-3.914-2.991-5.267-4.657l7.015-10.521c0.86-1.229,1.858-2.213,3.005-2.923c1.135-0.697,2.541-1.066,4.193-1.066
	c1.544,0,2.87,0.383,3.977,1.121c1.106,0.737,2.31,1.543,3.606,2.403c1.284,0.848,2.828,1.653,4.604,2.405
	c1.79,0.737,4.127,1.093,7.022,1.093c4.058,0,7.077-0.901,9.045-2.719c1.967-1.817,2.95-3.948,2.95-6.422
	c0-1.912-0.505-3.47-1.53-4.699c-0.997-1.229-2.35-2.295-4.002-3.183c-1.667-0.902-3.539-1.708-5.643-2.405
	c-2.09-0.71-4.249-1.488-6.462-2.363c-2.199-0.86-4.358-1.844-6.449-2.992c-2.089-1.146-3.975-2.567-5.628-4.303
	c-1.667-1.722-3.006-3.839-4.03-6.366c-1.011-2.527-1.517-5.574-1.517-9.14c0-4.44,0.819-8.744,2.445-12.924
	c1.626-4.182,4.071-7.897,7.296-11.135c3.237-3.224,7.24-5.82,12.035-7.787c4.81-1.98,10.411-2.964,16.818-2.964
	c6.393,0,12.104,1.105,17.118,3.318c5.014,2.214,9.167,4.933,12.419,8.129L381.839,70.222z"/>
<path fill="#5AC6FF" d="M468.987,145.84h-15.314c-1.79,0-3.293-0.232-4.482-0.698c-1.201-0.464-2.157-1.092-2.868-1.898
	c-0.696-0.792-1.202-1.748-1.475-2.855c-0.273-1.105-0.411-2.309-0.411-3.606v-6.83c-3.947,5.423-8.319,9.658-13.115,12.746
	c-4.809,3.073-10.096,4.604-15.889,4.604c-3.442,0-6.762-0.683-9.973-2.062c-3.197-1.395-6.025-3.483-8.484-6.284
	c-2.473-2.801-4.439-6.381-5.915-10.698c-1.476-4.345-2.214-9.467-2.214-15.383c0-8.688,1.585-16.913,4.756-24.7
	c3.169-7.787,7.595-14.604,13.292-20.451c5.696-5.848,12.46-10.493,20.274-13.949c7.814-3.442,16.394-5.163,25.752-5.163
	c4.55,0,9.181,0.313,13.854,0.914c4.672,0.628,9.289,1.735,13.853,3.334L468.987,145.84z M426.882,124.69
	c2.104,0,4.125-0.779,6.094-2.363c1.98-1.558,3.838-3.688,5.601-6.421c1.748-2.705,3.36-5.875,4.836-9.495
	c1.476-3.634,2.746-7.515,3.784-11.64l3.334-26.49h-1.667c-4.687,0-8.935,1.039-12.788,3.128c-3.852,2.104-7.157,4.946-9.931,8.54
	c-2.76,3.605-4.905,7.801-6.408,12.568c-1.517,4.754-2.268,9.851-2.268,15.273c0,3.088,0.246,5.697,0.737,7.855
	c0.492,2.146,1.162,3.895,1.981,5.206c0.833,1.324,1.816,2.308,2.964,2.923C424.286,124.391,425.529,124.69,426.882,124.69z"/>
</svg>
