<?xml version="1.0" encoding="utf-8"?>
<!-- Generator: Adobe Illustrator 15.0.2, SVG Export Plug-In  -->
<!DOCTYPE svg PUBLIC "-//W3C//DTD SVG 1.1//EN" "http://www.w3.org/Graphics/SVG/1.1/DTD/svg11.dtd" [
	<!ENTITY ns_flows "http://ns.adobe.com/Flows/1.0/">
]>
<svg version="1.1"
	 xmlns="http://www.w3.org/2000/svg" xmlns:xlink="http://www.w3.org/1999/xlink" xmlns:a="http://ns.adobe.com/AdobeSVGViewerExtensions/3.0/"
	 x="0px" y="0px" width="50px" height="50px" viewBox="-3.85 -8.13 50 50"
	 overflow="visible" enable-background="new -3.85 -8.13 50 50" xml:space="preserve">
<defs>
</defs>
<path fill="#231F20" d="M37.746,2.124c1.32,0,2.39,1.071,2.39,2.39c0,1.321-1.069,2.39-2.39,2.39H4.514
	c-1.32,0-2.39-1.069-2.39-2.39c0-1.319,1.07-2.39,2.39-2.39H37.746 M37.746,0H4.514C2.025,0,0,2.025,0,4.513
	c0,2.489,2.025,4.514,4.514,4.514h33.232c2.488,0,4.514-2.025,4.514-4.514C42.26,2.025,40.234,0,37.746,0L37.746,0z"/>
<path fill="#231F20" d="M37.746,14.523c1.32,0,2.39,1.07,2.39,2.39c0,1.32-1.069,2.39-2.39,2.39H4.514c-1.32,0-2.39-1.069-2.39-2.39
	c0-1.319,1.07-2.39,2.39-2.39H37.746 M37.746,12.399H4.514C2.025,12.399,0,14.424,0,16.913c0,2.489,2.025,4.514,4.514,4.514h33.232
	c2.488,0,4.514-2.024,4.514-4.514C42.26,14.424,40.234,12.399,37.746,12.399L37.746,12.399z"/>
<path fill="#231F20" d="M37.746,26.923c1.32,0,2.39,1.07,2.39,2.39c0,1.32-1.069,2.39-2.39,2.39H4.514c-1.32,0-2.39-1.069-2.39-2.39
	c0-1.319,1.07-2.39,2.39-2.39H37.746 M37.746,24.799H4.514C2.025,24.799,0,26.823,0,29.312s2.025,4.514,4.514,4.514h33.232
	c2.488,0,4.514-2.024,4.514-4.514S40.234,24.799,37.746,24.799L37.746,24.799z"/>
</svg>
