<?xml version="1.0" encoding="utf-8"?>
<!-- Generator: Adobe Illustrator 15.0.2, SVG Export Plug-In  -->
<!DOCTYPE svg PUBLIC "-//W3C//DTD SVG 1.1//EN" "http://www.w3.org/Graphics/SVG/1.1/DTD/svg11.dtd" [
	<!ENTITY ns_flows "http://ns.adobe.com/Flows/1.0/">
]>
<svg version="1.1"
	 xmlns="http://www.w3.org/2000/svg" xmlns:xlink="http://www.w3.org/1999/xlink" xmlns:a="http://ns.adobe.com/AdobeSVGViewerExtensions/3.0/"
	 x="0px" y="0px" width="300px" height="300px" viewBox="0 0.213 300 300"
	 overflow="visible" enable-background="new 0 0.213 300 300" xml:space="preserve">
<defs>
</defs>
<path fill="#333333" d="M66.495,134.213h-0.026c0.015,0,0.026-0.152,0.026-0.219c0-0.414-0.336-0.781-0.751-0.781H54.097
	c-0.415,0-0.751,0.367-0.751,0.781c0,0.066,0.011,0.219,0.027,0.219h-39.66C6.451,134.213,1,139.223,1,146.485v9.658
	c-1,0.146-1,0.476-1,0.86v5.823c0,0.385,0,0.714,1,0.86v8.531c-1,0-1,0.252-1,0.563v4.508c0,0.312,0,0.563,1,0.563v7.89
	c-1,0-1,0.252-1,0.563v4.508c0,0.312,0,0.563,1,0.563v95.233c0,7.262,5.451,13.602,12.713,13.602h52.782
	c7.262,0,13.505-6.34,13.505-13.602V146.485C80,139.223,73.756,134.213,66.495,134.213z M40.104,140.287
	c0.76,0,1.377,0.616,1.377,1.377c0,0.762-0.618,1.378-1.377,1.378c-0.761,0-1.378-0.616-1.378-1.378
	C38.726,140.903,39.343,140.287,40.104,140.287z M46,148.213c0,0.553-0.448,1-1,1H34c-0.552,0-1-0.447-1-1l0,0c0-0.553,0.448-1,1-1
	h11C45.552,147.213,46,147.66,46,148.213L46,148.213z M40.104,294.814c-4.149,0-7.513-3.363-7.513-7.514
	c0-4.149,3.364-7.514,7.513-7.514c4.149,0,7.513,3.364,7.513,7.514C47.617,291.451,44.253,294.814,40.104,294.814z M74,277.213H6
	v-121h68V277.213z"/>
<path fill="#333333" d="M284.713,0H112.895c-8.442,0-15.286,6.845-15.286,15.286v269.499c0,8.441,6.844,15.286,15.286,15.286
	h171.818c8.443,0,15.287-6.845,15.287-15.286V15.286C300,6.845,293.156,0,284.713,0z M198.804,13.987
	c1.154,0,2.089,0.936,2.089,2.089s-0.936,2.089-2.089,2.089c-1.154,0-2.089-0.936-2.089-2.089S197.65,13.987,198.804,13.987z
	 M198.804,293.523c-4.25,0-7.695-3.445-7.695-7.694s3.445-7.694,7.695-7.694c4.249,0,7.694,3.445,7.694,7.694
	S203.053,293.523,198.804,293.523z M289.758,270.95h-182.52V29.121h182.52V270.95z"/>
</svg>
