<?xml version="1.0" encoding="utf-8"?>
<!-- Generator: Adobe Illustrator 15.0.2, SVG Export Plug-In  -->
<!DOCTYPE svg PUBLIC "-//W3C//DTD SVG 1.1//EN" "http://www.w3.org/Graphics/SVG/1.1/DTD/svg11.dtd" [
	<!ENTITY ns_flows "http://ns.adobe.com/Flows/1.0/">
]>
<svg version="1.1"
	 xmlns="http://www.w3.org/2000/svg" xmlns:xlink="http://www.w3.org/1999/xlink" xmlns:a="http://ns.adobe.com/AdobeSVGViewerExtensions/3.0/"
	 x="0px" y="0px" width="300px" height="80px" viewBox="-0.229 -0.5 300 80"
	 overflow="visible" enable-background="new -0.229 -0.5 300 80" xml:space="preserve">
<defs>
</defs>
<path fill="#FFFFFF" d="M290.486,50.547c-1.875,1.036-4.156,1.551-6.838,1.551c-1.547,0-2.82-0.299-3.819-0.903
	c-1.002-0.602-1.775-1.416-2.32-2.438c-0.455-0.887-0.797-1.955-1.022-3.206c-0.229-1.25-0.364-2.376-0.41-3.377
	c2.547-0.273,4.701-0.569,6.464-0.888c1.763-0.317,3.895-0.852,6.396-1.603c3.16-0.865,5.662-2.188,7.503-3.974
	c1.842-1.785,2.763-3.916,2.763-6.395c0-2.593-1.062-4.537-3.188-5.832c-2.127-1.297-5.225-1.944-9.295-1.944
	c-3.457,0-6.617,0.602-9.482,1.808c-2.865,1.206-5.23,2.774-7.095,4.707c-1.978,2.023-3.469,4.297-4.467,6.82
	c-1.002,2.525-1.502,5.129-1.502,7.811c0,2.116,0.328,4.047,0.989,5.798c0.189,0.502,0.412,0.979,0.654,1.447
	c-0.858,0.577-1.964,1.01-1.964,1.01c-0.386,0.182-1.01,0.392-1.872,0.631c-0.864,0.237-1.637,0.357-2.316,0.357
	c-1.453,0-2.471-0.238-3.049-0.715s-0.869-1.374-0.869-2.691c0-0.523,0.107-1.328,0.323-2.418c0.216-1.091,0.404-1.965,0.561-2.624
	l4.836-20.953l-0.407-0.477l-10.883,0.477l-5.628,24.602c-1.432,1.384-2.883,2.45-4.349,3.199c-1.465,0.749-2.643,1.124-3.528,1.124
	c-1.228,0-2.091-0.313-2.591-0.939c-0.5-0.626-0.749-1.475-0.749-2.544c0-0.409,0.066-1.075,0.204-1.998
	c0.136-0.922,0.316-1.781,0.545-2.577l2.486-9.083c0.273-0.934,0.455-1.947,0.545-3.039c0.09-1.093,0.138-1.844,0.138-2.255
	c0-2.003-0.734-3.682-2.201-5.036c-1.466-1.355-3.553-2.032-6.257-2.032c-1.502,0-3.093,0.267-4.775,0.801
	c-1.658,0.527-3.395,1.16-5.207,1.896l0.428-2.049l-0.477-0.546l-10.417,2.148c-1.14-0.908-2.491-1.58-4.06-2.012
	c-1.568-0.432-3.375-0.647-5.422-0.647c-2.799,0-5.454,0.591-7.966,1.773c-2.514,1.182-4.691,2.786-6.532,4.809
	c-1.866,2.069-3.343,4.45-4.434,7.145c-1.091,2.695-1.638,5.577-1.638,8.647c0,4.047,1.063,7.23,3.189,9.55
	c2.126,2.319,5.167,3.479,9.124,3.479c1.388,0,2.536-0.131,3.445-0.393c0.91-0.261,1.89-0.642,2.936-1.141
	c0.864-0.388,1.67-0.631,2.422-1.154c0.749-0.523,1.409-0.255,1.978-1.255h0.273c-0.704,3-1.473,6.074-2.304,8.009
	c-0.829,1.932-1.699,3.338-2.607,4.429c-0.956,1.137-1.951,1.858-2.986,2.267c-1.035,0.41-2.076,0.679-3.121,0.862
	c-0.296-0.682-0.729-1.59-1.296-2.693c-0.568-1.104-1.184-2.081-1.844-2.921c-0.727-0.933-1.573-1.732-2.539-2.392
	c-0.969-0.66-2.065-0.99-3.292-0.99c-1.639,0-2.918,0.515-3.839,1.55c-0.92,1.035-1.381,2.2-1.381,3.496
	c0,0.751,0.165,1.518,0.494,2.303c0.33,0.784,0.948,1.495,1.859,2.131c0.932,0.659,2.278,1.199,4.041,1.621
	c1.763,0.42,4.041,0.63,6.84,0.63c2.612,0,5.109-0.313,7.485-0.938c2.375-0.625,4.656-1.746,6.84-3.358
	c2.137-1.593,4.012-3.735,5.628-6.43c1.613-2.695,2.876-6.111,3.785-10.25l4.75-22.649c0.507-0.184,1.091-0.376,1.771-0.578
	c0.762-0.227,1.507-0.341,2.236-0.341c1.479,0,2.475,0.255,2.987,0.768c0.512,0.512,0.768,1.394,0.768,2.646
	c0,0.525-0.109,1.338-0.323,2.442c-0.216,1.104-0.404,1.975-0.563,2.611l-2.566,9.595c-0.341,1.32-0.552,2.345-0.632,3.074
	c-0.079,0.728-0.118,1.444-0.118,2.15c0,1.98,0.687,3.665,2.062,5.054c1.376,1.389,3.324,2.083,5.848,2.083
	c2.841,0,5.341-0.382,7.5-1.438c2.16-1.057,4.434-1.744,6.82-4.744h0.236c0.388,2,1.331,3.073,2.834,4.198
	c1.5,1.124,3.502,1.613,6.005,1.613c1.774,0,3.333-0.27,4.675-0.735c1.344-0.465,3.141-1.161,5.393-2.047l4.381-1.646
	c0.209,0.243,0.416,0.482,0.646,0.711c1.341,1.319,3.041,2.344,5.099,3.083c2.059,0.738,4.453,1.108,7.18,1.108
	c3.523,0,6.885-0.871,10.078-2.611c3.195-1.739,5.816-4.063,7.862-6.975l-2.489-2.08C294.153,47.87,292.363,49.513,290.486,50.547z
	 M279.162,28.548c1.559-2.853,3.211-4.281,4.963-4.281c1.251,0,2.229,0.518,2.933,1.552c0.707,1.036,1.059,2.519,1.059,4.451
	c0,1.956-0.375,3.525-1.126,4.707c-0.749,1.183-1.979,2.148-3.684,2.898c-0.772,0.341-1.818,0.637-3.137,0.887
	c-1.319,0.251-2.65,0.456-3.991,0.614C276.61,35.011,277.605,31.402,279.162,28.548z M202.469,48.552
	c-0.705,0.773-1.644,1.501-2.812,2.183c-1.172,0.682-2.313,1.023-3.427,1.023c-0.955,0-1.813-0.181-2.575-0.545
	c-0.76-0.364-1.38-0.909-1.856-1.637c-0.477-0.727-0.813-1.552-1.006-2.473c-0.194-0.921-0.289-1.927-0.289-3.019
	c0-2.479,0.272-4.884,0.819-7.214c0.545-2.33,1.286-4.371,2.219-6.123c0.954-1.773,2.058-3.188,3.311-4.246
	c1.252-1.057,2.616-1.586,4.098-1.586c1.092,0,1.957,0.165,2.594,0.495c0.638,0.329,1.171,0.778,1.604,1.348
	c0.432,0.546,0.722,1.12,0.87,1.721c0.148,0.604,0.223,1.188,0.223,1.757L202.469,48.552z"/>
<path fill="#FFFFFF" d="M168.184,25.24c-2.968-2.513-7.021-3.77-12.159-3.77c-3.388,0-6.539,0.551-9.447,1.654
	c-2.911,1.104-5.367,2.598-7.369,4.485c-2.022,1.933-3.597,4.196-4.723,6.789c-1.124,2.591-1.688,5.4-1.688,8.424
	c0,2.874,0.629,5.352,1.869,7.446c-0.348,0.469-0.918,0.799-1.383,1.004c-0.012,0.004-0.024,0.008-0.024,0.008
	c-0.408,0.183-1.097,0.391-2.069,0.631c-0.973,0.239-1.741,0.358-2.307,0.358c-1.518,0-2.604-0.239-3.262-0.717
	c-0.656-0.477-0.983-1.375-0.983-2.693c0-0.523,0.106-1.331,0.322-2.422c0.217-1.091,0.403-1.967,0.564-2.626l9.172-39.906
	l-0.377-0.545l-18.01,0.887l-0.615,2.523c0.932,0.091,1.75,0.194,2.455,0.308c0.704,0.114,1.331,0.319,1.876,0.613
	c0.545,0.296,0.954,0.683,1.226,1.161c0.275,0.477,0.41,1.125,0.41,1.944c0,0.227-0.022,0.511-0.067,0.853
	c-0.045,0.341-0.114,0.705-0.204,1.091l-7.367,32.027c-0.183,0.841-0.346,1.717-0.494,2.625c-0.149,0.911-0.222,1.786-0.222,2.626
	c0,2.047,0.786,3.736,2.354,5.066c1.569,1.33,3.719,1.995,6.445,1.995c1.821,0,3.446-0.232,4.879-0.698
	c1.432-0.467,3.275-1.144,5.525-2.03l4.135-1.549c0.201,0.198,0.406,0.39,0.622,0.577c2.979,2.582,6.889,3.872,11.731,3.872
	c3.616,0,6.874-0.564,9.772-1.688c2.899-1.125,5.429-2.723,7.591-4.792c1.999-1.932,3.546-4.207,4.638-6.821
	c1.091-2.615,1.636-5.355,1.636-8.22C172.635,31.249,171.152,27.752,168.184,25.24z M160.016,39.429
	c-0.409,2.648-1.013,5.064-1.81,7.247c-0.794,2.228-1.874,4.104-3.239,5.627c-1.364,1.523-2.979,2.285-4.843,2.285
	c-1.729,0-3.048-0.619-3.957-1.859c-0.908-1.239-1.363-3.233-1.363-5.986c0-2.067,0.171-4.416,0.51-7.042
	c0.343-2.627,0.911-5.066,1.706-7.317c0.909-2.706,2.093-4.757,3.547-6.155c1.455-1.398,3.058-2.098,4.809-2.098
	c1.707,0,3.008,0.625,3.907,1.875c0.897,1.251,1.347,3.207,1.347,5.866C160.629,34.261,160.424,36.779,160.016,39.429z"/>
<path fill="#FFFFFF" d="M52.149,2.281C49.389,0.621,45.189,0,39.551,0H13.33l-0.581,2.281c2.183,0.317,3.757,0.639,4.725,1.172
	c0.966,0.535,1.45,1.228,1.45,2.182c0,0.16-0.024,0.373-0.069,0.691c-0.046,0.318-0.124,1.056-0.239,1.533L11.497,39h-0.006
	L8.629,51.016c-0.181,0.797-0.506,1.312-0.972,1.904c-0.466,0.591-1.142,0.946-2.028,1.241c-0.547,0.183-1.383,0.304-2.508,0.45
	c-1.126,0.149-1.974,0.556-2.54,0.579L0,58h26.306l0.58-2.833c-2.455-0.251-4.104-0.787-4.946-1.264
	c-0.841-0.479-1.262-1.314-1.262-2.338c0-0.181,0.029-0.486,0.087-0.827c0.056-0.341,0.131-0.372,0.221-0.756L23.601,39h0.008
	l2.578-11h4.909c3.546,0,6.791-0.783,9.736-1.488c2.942-0.703,5.606-2,7.994-3.455c2.409-1.501,4.257-3.468,5.541-5.684
	c1.282-2.217,1.926-4.673,1.926-7.47C56.293,6.448,54.912,3.941,52.149,2.281z M42.035,15.44c-0.5,1.705-1.273,3.194-2.318,4.468
	c-1.092,1.319-2.52,2.297-4.283,3.035C33.672,23.682,31.561,24,29.105,24h-2.218l4.991-21h2.487c2.978,0,5.126,0.366,6.444,1.582
	c1.318,1.216,1.978,2.931,1.978,5.387C42.788,11.992,42.536,13.735,42.035,15.44z"/>
<path fill="#FFFFFF" d="M36.597,28.878c0.048-0.018,0.101-0.036,0.149-0.053c-0.047,0.004-0.092,0.01-0.14,0.015L36.597,28.878z"/>
<path fill="#FFFFFF" d="M71.659,24.529c-1.117-1.215-2.643-1.824-4.577-1.824c-1.801,0-3.483,0.414-5.055,1.357
	C60.455,25.006,58.544,27,56.289,29H56.05c-0.432-1-1.312-3.336-2.64-4.392c-0.527-0.419-1.164-0.723-1.904-0.976
	c-0.438,0.333-0.896,0.67-1.382,0.973c-2.387,1.456-5.05,2.589-7.993,3.293c-0.067,0.016-0.135,0.033-0.2,0.048
	c0.842,0.098,1.45,0.316,1.814,0.657c0.511,0.478,0.77,1.377,0.77,2.695c0,0.681-0.11,1.536-0.325,2.56
	c-0.217,1.022-0.394,2.19-0.528,2.827L38.951,58h11.256l5.387-24.485c1.007-1.182,2.06-2.404,3.16-3.325
	c1.098-0.921,2.411-1.784,3.937-2.42c-0.614,1.431-1.062,2.458-1.348,3.163s-0.427,1.527-0.427,2.503
	c0,1.045,0.489,1.979,1.467,2.819c0.979,0.842,2.319,1.257,4.025,1.257c1.318,0,2.341-0.19,3.07-0.565
	c0.727-0.375,1.419-0.95,2.079-1.723c0.591-0.682,1.034-1.502,1.33-2.457c0.296-0.955,0.444-1.945,0.444-2.969
	C73.332,27.502,72.774,25.746,71.659,24.529z"/>
<path fill="#FFFFFF" d="M103.633,25.24c-2.969-2.513-7.021-3.77-12.16-3.77c-3.388,0-6.537,0.551-9.448,1.654
	c-2.689,1.021-4.987,2.378-6.899,4.068c0.13,0.776,0.203,1.606,0.203,2.509c0,1.353-0.195,2.66-0.585,3.921
	c-0.391,1.263-0.978,2.345-1.758,3.247c-0.872,1.021-1.788,1.78-2.751,2.276c-0.49,0.252-1.082,0.44-1.775,0.564
	c-0.14,1.011-0.214,2.047-0.214,3.113c0,4.456,1.49,7.975,4.469,10.556c2.979,2.582,6.89,3.872,11.733,3.872
	c3.616,0,6.872-0.564,9.771-1.688c2.898-1.125,5.429-2.723,7.588-4.792c2.002-1.932,3.549-4.207,4.64-6.821s1.637-5.355,1.637-8.22
	C108.083,31.249,106.6,27.752,103.633,25.24z M95.463,39.429c-0.408,2.648-1.011,5.064-1.807,7.247
	c-0.796,2.228-1.876,4.104-3.241,5.627c-1.363,1.523-2.978,2.285-4.843,2.285c-1.729,0-3.048-0.619-3.957-1.859
	c-0.909-1.239-1.363-3.233-1.363-5.986c0-2.067,0.171-4.416,0.511-7.042c0.342-2.627,0.909-5.066,1.706-7.317
	c0.909-2.706,2.093-4.757,3.546-6.155c1.457-1.398,3.059-2.098,4.811-2.098c1.705,0,3.007,0.625,3.905,1.875
	c0.897,1.251,1.347,3.207,1.347,5.866C96.077,34.261,95.873,36.779,95.463,39.429z"/>
</svg>
