<?xml version="1.0" encoding="UTF-8" standalone="no"?>
<svg width="223px" height="60px" viewBox="0 0 223 60" version="1.1" xmlns="http://www.w3.org/2000/svg" xmlns:xlink="http://www.w3.org/1999/xlink" xmlns:sketch="http://www.bohemiancoding.com/sketch/ns">
    <!-- Generator: Sketch 3.2.1 (9971) - http://www.bohemiancoding.com/sketch -->
    <title>Artboard 11</title>
    <desc>Created with Sketch.</desc>
    <defs></defs>
    <g id="Page-2" stroke="none" stroke-width="1" fill="none" fill-rule="evenodd" sketch:type="MSPage">
        <g id="Artboard-11" sketch:type="MSArtboardGroup" fill="#2C88DC">
            <path d="M66.6032586,26.7629997 C66.6032586,25.0353338 65.1895028,23.6177618 63.4664878,23.6177618 L59.3577599,23.6177618 L59.3577599,29.9082375 L63.4664878,29.9082375 C65.1895028,29.9082375 66.6032586,28.4906655 66.6032586,26.7629997 L66.6032586,26.7629997 Z M71.1096054,26.6301023 C71.1096054,30.4841261 68.0611943,33.8065605 64.2617255,33.8065605 L59.3577599,33.8065605 L59.3577599,40.5400274 L55.1164923,40.5400274 L55.1164923,19.7194389 L64.2617255,19.7194389 C68.0611943,19.7194389 71.1096054,22.8646767 71.1096054,26.6301023 L71.1096054,26.6301023 Z M72.3024619,26.6301023 C72.3024619,22.2001899 68.7238924,18.5233625 64.2617255,18.5233625 L53.9236358,18.5233625 L53.9236358,41.7361038 L60.5506164,41.7361038 L60.5506164,35.0026369 L64.2617255,35.0026369 C68.7238924,35.0026369 72.3024619,31.148613 72.3024619,26.6301023 L72.3024619,26.6301023 Z M65.4104021,26.7629997 C65.4104021,27.8261787 64.5268047,28.7121612 63.4664878,28.7121612 L60.5506164,28.7121612 L60.5506164,24.8138382 L63.4664878,24.8138382 C64.5268047,24.8138382 65.4104021,25.6998207 65.4104021,26.7629997 L65.4104021,26.7629997 Z M86.9701789,27.0730936 C86.9701789,25.2125303 85.4238834,23.6177618 83.524149,23.6177618 L79.7246801,23.6177618 L79.7246801,30.5284253 L83.524149,30.5284253 C85.4238834,30.5284253 86.9701789,28.9779559 86.9701789,27.0730936 L86.9701789,27.0730936 Z M79.7246801,34.4267482 L79.7246801,40.5400274 L75.4834126,40.5400274 L75.4834126,19.7194389 L84.6286458,19.7194389 C88.4281146,19.7194389 91.4765257,22.8646767 91.4765257,26.6301023 C91.4765257,29.1551524 90.1511296,31.7245016 88.2072153,33.1863727 C90.5045685,34.33815 91.4765257,36.9517983 91.4765257,39.3439511 L91.4765257,40.5400274 L87.2352581,40.5400274 L87.2352581,39.5654467 C87.2352581,37.2618922 85.556423,34.4267482 82.508012,34.4267482 L79.7246801,34.4267482 Z M82.508012,35.6228246 C84.8053652,35.6228246 86.0424016,37.7934817 86.0424016,39.5654467 L86.0424016,41.7361038 L92.6693822,41.7361038 L92.6693822,39.3439511 C92.6693822,36.9960975 92.050864,34.7368421 89.9302302,33.0534754 C91.697425,31.3258095 92.6693822,29.022255 92.6693822,26.6301023 C92.6693822,22.2001899 89.0908127,18.5233625 84.6286458,18.5233625 L74.2905561,18.5233625 L74.2905561,41.7361038 L80.9175366,41.7361038 L80.9175366,35.6228246 L82.508012,35.6228246 Z M85.7773224,27.0730936 C85.7773224,28.313469 84.7611854,29.3323489 83.524149,29.3323489 L80.9175366,29.3323489 L80.9175366,24.8138382 L83.524149,24.8138382 C84.7611854,24.8138382 85.7773224,25.8770172 85.7773224,27.0730936 L85.7773224,27.0730936 Z M105.834984,37.0403966 C109.590273,37.0403966 112.417784,33.9394579 112.417784,30.2183314 C112.417784,26.4529058 109.590273,23.3519671 105.834984,23.3519671 C102.123874,23.3519671 99.2963627,26.4529058 99.2963627,30.2183314 C99.2963627,33.9394579 102.123874,37.0403966 105.834984,37.0403966 L105.834984,37.0403966 Z M105.834984,41.1602152 C99.8265212,41.1602152 94.8341958,36.2430123 94.8341958,30.2183314 C94.8341958,24.1050522 99.8265212,19.2321485 105.834984,19.2321485 C111.887626,19.2321485 116.879951,24.1050522 116.879951,30.2183314 C116.879951,36.2430123 111.887626,41.1602152 105.834984,41.1602152 L105.834984,41.1602152 Z M105.834984,42.3562915 C112.550324,42.3562915 118.072808,36.9074992 118.072808,30.2183314 C118.072808,23.4405653 112.550324,18.0360721 105.834984,18.0360721 C99.1638231,18.0360721 93.6413393,23.4405653 93.6413393,30.2183314 C93.6413393,36.9074992 99.1638231,42.3562915 105.834984,42.3562915 L105.834984,42.3562915 Z M105.834984,35.8443202 C102.830752,35.8443202 100.489219,33.274971 100.489219,30.2183314 C100.489219,27.1173927 102.830752,24.5480435 105.834984,24.5480435 C108.883395,24.5480435 111.224928,27.1173927 111.224928,30.2183314 C111.224928,33.274971 108.883395,35.8443202 105.834984,35.8443202 L105.834984,35.8443202 Z M121.253758,19.7194389 L125.495026,19.7194389 L125.495026,36.5531062 L133.977561,36.5531062 L133.977561,40.5400274 L121.253758,40.5400274 L121.253758,19.7194389 Z M120.060902,41.7361038 L135.170418,41.7361038 L135.170418,35.3570298 L126.687882,35.3570298 L126.687882,18.5233625 L120.060902,18.5233625 L120.060902,41.7361038 Z M147.89422,37.0403966 C151.649509,37.0403966 154.477021,33.9394579 154.477021,30.2183314 C154.477021,26.4529058 151.649509,23.3519671 147.89422,23.3519671 C144.183111,23.3519671 141.355599,26.4529058 141.355599,30.2183314 C141.355599,33.9394579 144.183111,37.0403966 147.89422,37.0403966 L147.89422,37.0403966 Z M147.89422,41.1602152 C141.885758,41.1602152 136.893432,36.2430123 136.893432,30.2183314 C136.893432,24.1050522 141.885758,19.2321485 147.89422,19.2321485 C153.946862,19.2321485 158.939188,24.1050522 158.939188,30.2183314 C158.939188,36.2430123 153.946862,41.1602152 147.89422,41.1602152 L147.89422,41.1602152 Z M147.89422,42.3562915 C154.609561,42.3562915 160.132044,36.9074992 160.132044,30.2183314 C160.132044,23.4405653 154.609561,18.0360721 147.89422,18.0360721 C141.22306,18.0360721 135.700576,23.4405653 135.700576,30.2183314 C135.700576,36.9074992 141.22306,42.3562915 147.89422,42.3562915 L147.89422,42.3562915 Z M147.89422,35.8443202 C144.889989,35.8443202 142.548456,33.274971 142.548456,30.2183314 C142.548456,27.1173927 144.889989,24.5480435 147.89422,24.5480435 C150.942631,24.5480435 153.284164,27.1173927 153.284164,30.2183314 C153.284164,33.274971 150.942631,35.8443202 147.89422,35.8443202 L147.89422,35.8443202 Z M177.892352,25.1239321 C176.743676,24.016454 175.1532,23.3519671 173.386005,23.3519671 C169.674896,23.3519671 166.847385,26.4529058 166.847385,30.2183314 C166.847385,33.9394579 169.674896,37.0403966 173.386005,37.0403966 C176.478596,37.0403966 178.73177,35.046936 179.615367,32.4775868 L173.120926,32.4775868 L173.120926,28.5792638 L184.298433,28.5792638 C184.386793,29.1108533 184.430973,29.6424428 184.430973,30.2183314 C184.430973,36.2430123 179.438648,41.1602152 173.386005,41.1602152 C167.377543,41.1602152 162.385218,36.2430123 162.385218,30.2183314 C162.385218,24.1050522 167.377543,19.2321485 173.386005,19.2321485 C177.141294,19.2321485 179.615367,20.6940196 181.294202,22.5102837 L177.892352,25.1239321 Z M182.884678,22.598882 C180.454785,19.8080371 177.362194,18.0360721 173.386005,18.0360721 C166.714845,18.0360721 161.192361,23.4405653 161.192361,30.2183314 C161.192361,36.9074992 166.714845,42.3562915 173.386005,42.3562915 C180.101346,42.3562915 185.62383,36.9074992 185.62383,30.2183314 C185.62383,29.5538445 185.53547,28.6235629 185.314571,27.3831874 L171.92807,27.3831874 L171.92807,33.6736631 L177.671453,33.6736631 C176.743676,35.0026369 175.28574,35.8443202 173.386005,35.8443202 C170.381774,35.8443202 168.040241,33.274971 168.040241,30.2183314 C168.040241,27.1173927 170.381774,24.5480435 173.386005,24.5480435 C175.24156,24.5480435 176.566956,25.1682312 177.627273,26.5858032 L182.884678,22.598882 Z M196.536258,41.115916 C192.42753,41.115916 189.114039,37.7934817 189.114039,33.6736631 L189.114039,19.7194389 L193.355307,19.7194389 L193.355307,33.8508596 C193.355307,35.6228246 194.769063,37.0403966 196.536258,37.0403966 C198.303452,37.0403966 199.717208,35.6228246 199.717208,33.8508596 L199.717208,19.7194389 L203.958476,19.7194389 L203.958476,33.6736631 C203.958476,37.7934817 200.644986,41.115916 196.536258,41.115916 L196.536258,41.115916 Z M196.536258,42.3119924 C201.307684,42.3119924 205.151332,38.4579686 205.151332,33.6736631 L205.151332,18.5233625 L198.524352,18.5233625 L198.524352,33.8508596 C198.524352,34.9583377 197.640754,35.8443202 196.536258,35.8443202 C195.431761,35.8443202 194.548163,34.9583377 194.548163,33.8508596 L194.548163,18.5233625 L187.921183,18.5233625 L187.921183,33.6736631 C187.921183,38.4579686 191.764832,42.3119924 196.536258,42.3119924 L196.536258,42.3119924 Z M209.34842,19.7194389 L221.630424,19.7194389 L221.630424,23.7063601 L213.589688,23.7063601 L213.589688,27.6932813 L221.188625,27.6932813 L221.188625,31.5916043 L213.589688,31.5916043 L213.589688,36.5531062 L221.807143,36.5531062 L221.807143,40.5400274 L209.34842,40.5400274 L209.34842,19.7194389 Z M208.155564,41.7361038 L223,41.7361038 L223,35.3570298 L214.782544,35.3570298 L214.782544,32.7876806 L222.381482,32.7876806 L222.381482,26.4972049 L214.782544,26.4972049 L214.782544,24.9024365 L222.823281,24.9024365 L222.823281,18.5233625 L208.155564,18.5233625 L208.155564,41.7361038 Z M95.4365568,52.1122244 C95.4365568,50.0681363 93.7875116,48.3607214 91.7321799,48.3607214 L86.7850442,48.3607214 L86.7850442,59.6633267 L89.079368,59.6633267 L89.079368,56.008016 L91.7321799,56.008016 C93.7875116,56.008016 95.4365568,54.2044088 95.4365568,52.1122244 Z M92.9988378,52.1843687 C92.9988378,53.1222445 92.2340632,53.8917836 91.3019941,53.8917836 L89.079368,53.8917836 L89.079368,50.4769539 L91.3019941,50.4769539 C92.2340632,50.4769539 92.9988378,51.246493 92.9988378,52.1843687 L92.9988378,52.1843687 Z M101.005072,56.3446894 C102.654117,56.3446894 103.562287,57.8837675 103.562287,59.1342685 L103.562287,59.6633267 L105.856611,59.6633267 L105.856611,59.0140281 C105.856611,57.7154309 105.330828,56.2965932 104.088069,55.6713427 C105.139634,54.8777555 105.856611,53.4829659 105.856611,52.1122244 C105.856611,50.0681363 104.207565,48.3607214 102.152234,48.3607214 L97.2050981,48.3607214 L97.2050981,59.6633267 L99.4994218,59.6633267 L99.4994218,56.3446894 L101.005072,56.3446894 Z M103.418892,52.3527054 C103.418892,53.3867735 102.582419,54.2284569 101.554754,54.2284569 L99.4994218,54.2284569 L99.4994218,50.4769539 L101.554754,50.4769539 C102.582419,50.4769539 103.418892,51.3426854 103.418892,52.3527054 L103.418892,52.3527054 Z M113.002473,60 C116.276665,60 118.977275,57.3306613 118.977275,54.0601202 C118.977275,50.741483 116.276665,48.0961924 113.002473,48.0961924 C109.752181,48.0961924 107.051571,50.741483 107.051571,54.0601202 C107.051571,57.3306613 109.752181,60 113.002473,60 L113.002473,60 Z M113.002473,57.7635271 C110.99494,57.7635271 109.465391,56.0801603 109.465391,54.0601202 C109.465391,52.0160321 110.99494,50.3326653 113.002473,50.3326653 C115.033906,50.3326653 116.563455,52.0160321 116.563455,54.0601202 C116.563455,56.0801603 115.033906,57.7635271 113.002473,57.7635271 L113.002473,57.7635271 Z M123.207434,57.498998 L123.207434,50.4769539 L125.406161,50.4769539 C127.461493,50.4769539 128.895445,52.0400802 128.895445,53.987976 C128.895445,55.9358717 127.461493,57.498998 125.406161,57.498998 L123.207434,57.498998 Z M120.913111,59.6633267 L126.027541,59.6633267 C129.110538,59.6633267 131.47656,57.1142285 131.47656,53.987976 C131.47656,50.8617234 129.038841,48.3607214 126.027541,48.3607214 L120.913111,48.3607214 L120.913111,59.6633267 Z M137.427462,59.9759519 C139.650088,59.9759519 141.442529,58.1723447 141.442529,55.9358717 L141.442529,48.3607214 L139.148205,48.3607214 L139.148205,56.0320641 C139.148205,56.993988 138.38343,57.7635271 137.427462,57.7635271 C136.471494,57.7635271 135.706719,56.993988 135.706719,56.0320641 L135.706719,48.3607214 L133.412395,48.3607214 L133.412395,55.9358717 C133.412395,58.1723447 135.204836,59.9759519 137.427462,59.9759519 L137.427462,59.9759519 Z M143.139372,54.0601202 C143.139372,57.3547094 145.839982,60 149.090275,60 C149.759452,60 150.380832,59.8797595 150.978312,59.6873747 L150.978312,57.2104208 C150.548126,57.498998 149.878948,57.7635271 149.090275,57.7635271 C147.082741,57.7635271 145.553192,56.0801603 145.553192,54.0601202 C145.553192,52.0160321 147.082741,50.3326653 149.090275,50.3326653 C149.878948,50.3326653 150.524227,50.5971944 150.978312,50.8857715 L150.978312,48.4088176 C150.380832,48.1923848 149.759452,48.0961924 149.090275,48.0961924 C145.839982,48.0961924 143.139372,50.741483 143.139372,54.0601202 L143.139372,54.0601202 Z M155.304068,59.6633267 L157.598392,59.6633267 L157.598392,50.5731463 L160.322901,50.5731463 L160.322901,48.3607214 L152.53176,48.3607214 L152.53176,50.5731463 L155.304068,50.5731463 L155.304068,59.6633267 Z M162.497729,59.6633267 L164.792053,59.6633267 L164.792053,48.3607214 L162.497729,48.3607214 L162.497729,59.6633267 Z M172.678791,60 C175.952982,60 178.653592,57.3306613 178.653592,54.0601202 C178.653592,50.741483 175.952982,48.0961924 172.678791,48.0961924 C169.428499,48.0961924 166.727889,50.741483 166.727889,54.0601202 C166.727889,57.3306613 169.428499,60 172.678791,60 L172.678791,60 Z M172.678791,57.7635271 C170.671258,57.7635271 169.141708,56.0801603 169.141708,54.0601202 C169.141708,52.0160321 170.671258,50.3326653 172.678791,50.3326653 C174.710223,50.3326653 176.239773,52.0160321 176.239773,54.0601202 C176.239773,56.0801603 174.710223,57.7635271 172.678791,57.7635271 L172.678791,57.7635271 Z M180.23094,59.6633267 L182.381869,59.6633267 L182.381869,51.6072144 L189.288739,59.9519038 L189.288739,48.3607214 L187.137811,48.3607214 L187.137811,54.1322645 L182.238473,48.3607214 L180.23094,48.3607214 L180.23094,59.6633267 Z M141.538125,9.59519038 L142.350698,11.5911824 L144.764518,11.5911824 L139.673987,0 L134.583456,11.5911824 L136.997276,11.5911824 L137.833748,9.59519038 L141.538125,9.59519038 Z M37.2297071,26.9573064 C37.4239643,27.9095229 37.5258324,28.8941343 37.5258324,29.9019115 C37.5258324,38.2027845 30.6145848,44.9319716 22.0891288,44.9319716 C18.3587614,44.9319716 14.9374432,43.6436314 12.2689209,41.4990081 C5.89996499,43.9930511 1.17496975,44.7100252 0.186870902,42.9985878 C-0.741366112,41.3908341 1.83666214,37.9980647 6.5836862,34.0537485 C6.66485522,34.4198975 6.75992193,34.7842079 6.86867033,35.1463055 C3.2307764,38.2323862 1.2939963,40.7751786 1.97997935,41.9633361 C2.71929246,43.243864 6.34331653,42.6733269 11.3968716,40.7427047 C8.4725369,38.0077053 6.65242514,34.1617641 6.65242514,29.9019115 C6.65242514,21.6010385 13.5636728,14.8718514 22.0891288,14.8718514 C29.175355,14.8718514 35.1463771,19.5208284 36.9604319,25.8571474 C40.8304546,22.6347454 42.9183984,19.9636 42.2099588,18.7365467 C41.5458771,17.5863234 38.5537062,17.9298651 34.2884334,19.4112687 C34.0301445,19.1339122 33.7630216,18.8673424 33.4873575,18.611889 C39.0558882,16.6044075 43.0979411,16.1335706 44.0030672,17.701295 C44.9556953,19.3512952 42.21683,22.8807682 37.2297071,26.9573064 Z M36.1497748,27.8210286 C36.2611041,28.4992254 36.3188785,29.194184 36.3188785,29.9019115 C36.3188785,37.3290084 29.9561767,43.34986 22.1073863,43.34986 C19.0317136,43.34986 16.1842429,42.4253051 13.8584218,40.8538768 C17.261012,39.4259271 21.0524596,37.5429661 24.9489744,35.2933123 C29.2242832,32.8249615 33.0540344,30.2454329 36.1497748,27.8210286 Z M35.9152344,26.7064121 C34.3996422,20.8219324 28.7925734,16.453963 22.1073863,16.453963 C14.2585959,16.453963 7.8958941,22.4748146 7.8958941,29.9019115 C7.8958941,34.0051186 9.83789875,37.6791158 12.899606,40.145781 C16.3349478,38.7313881 20.3085734,36.7688285 24.4277914,34.3905969 C28.8996693,31.808757 32.8614877,29.1305794 35.9152344,26.7064121 Z M140.821149,7.5511022 L138.526825,7.5511022 L139.673987,4.83366733 L140.821149,7.5511022 Z M24.533689,42.0271143 C25.6675923,42.0271143 26.5868025,41.1341618 26.5868025,40.0326492 C26.5868025,38.9311365 25.6675923,38.038184 24.533689,38.038184 C23.3997857,38.038184 22.4805754,38.9311365 22.4805754,40.0326492 C22.4805754,41.1341618 23.3997857,42.0271143 24.533689,42.0271143 Z M24.9443117,24.4414668 C26.758557,24.4414668 28.2292934,23.0127429 28.2292934,21.2503226 C28.2292934,19.4879023 26.758557,18.0591784 24.9443117,18.0591784 C23.1300664,18.0591784 21.65933,19.4879023 21.65933,21.2503226 C21.65933,23.0127429 23.1300664,24.4414668 24.9443117,24.4414668 Z M13.4468759,34.0148994 C14.8075598,34.0148994 15.9106121,32.9433564 15.9106121,31.6215412 C15.9106121,30.299726 14.8075598,29.2281831 13.4468759,29.2281831 C12.0861919,29.2281831 10.9831396,30.299726 10.9831396,31.6215412 C10.9831396,32.9433564 12.0861919,34.0148994 13.4468759,34.0148994 Z M37.2297071,26.9573064 C37.1538492,26.5854636 37.0639026,26.2185607 36.9604319,25.8571474 C36.6251859,26.1362924 36.276567,26.4195741 35.9152344,26.7064121 C36.0094757,27.0723159 36.0878973,27.4440832 36.1497748,27.8210286 C36.5204402,27.5307449 36.8805827,27.2426851 37.2297071,26.9573064 Z M11.3968716,40.7427047 C11.6775905,41.0052486 11.9684847,41.2575552 12.2689209,41.4990081 C12.7882041,41.2956601 13.3184158,41.0804987 13.8584218,40.8538768 C13.5280082,40.6306346 13.2081225,40.3943373 12.899606,40.145781 C12.386237,40.3571444 11.8848887,40.5562663 11.3968716,40.7427047 Z" id="prologue" sketch:type="MSShapeGroup"></path>
        </g>
    </g>
</svg>