<?xml version="1.0" encoding="UTF-8" standalone="no"?>
<svg width="223px" height="60px" viewBox="0 0 223 60" version="1.1" xmlns="http://www.w3.org/2000/svg" xmlns:xlink="http://www.w3.org/1999/xlink" xmlns:sketch="http://www.bohemiancoding.com/sketch/ns">
    <!-- Generator: Sketch 3.2.1 (9971) - http://www.bohemiancoding.com/sketch -->
    <title>Artboard 11</title>
    <desc>Created with Sketch.</desc>
    <defs></defs>
    <g id="Page-2" stroke="none" stroke-width="1" fill="none" fill-rule="evenodd" sketch:type="MSPage">
        <g id="Artboard-11" sketch:type="MSArtboardGroup" fill="#2C88DC">
            <path d="M62.6032586,26.7629997 C62.6032586,25.0353338 61.1895028,23.6177618 59.4664878,23.6177618 L55.3577599,23.6177618 L55.3577599,29.9082375 L59.4664878,29.9082375 C61.1895028,29.9082375 62.6032586,28.4906655 62.6032586,26.7629997 L62.6032586,26.7629997 Z M67.1096054,26.6301023 C67.1096054,30.4841261 64.0611943,33.8065605 60.2617255,33.8065605 L55.3577599,33.8065605 L55.3577599,40.5400274 L51.1164923,40.5400274 L51.1164923,19.7194389 L60.2617255,19.7194389 C64.0611943,19.7194389 67.1096054,22.8646767 67.1096054,26.6301023 L67.1096054,26.6301023 Z M68.3024619,26.6301023 C68.3024619,22.2001899 64.7238924,18.5233625 60.2617255,18.5233625 L49.9236358,18.5233625 L49.9236358,41.7361038 L56.5506164,41.7361038 L56.5506164,35.0026369 L60.2617255,35.0026369 C64.7238924,35.0026369 68.3024619,31.148613 68.3024619,26.6301023 L68.3024619,26.6301023 Z M61.4104021,26.7629997 C61.4104021,27.8261787 60.5268047,28.7121612 59.4664878,28.7121612 L56.5506164,28.7121612 L56.5506164,24.8138382 L59.4664878,24.8138382 C60.5268047,24.8138382 61.4104021,25.6998207 61.4104021,26.7629997 L61.4104021,26.7629997 Z M82.9701789,27.0730936 C82.9701789,25.2125303 81.4238834,23.6177618 79.524149,23.6177618 L75.7246801,23.6177618 L75.7246801,30.5284253 L79.524149,30.5284253 C81.4238834,30.5284253 82.9701789,28.9779559 82.9701789,27.0730936 L82.9701789,27.0730936 Z M75.7246801,34.4267482 L75.7246801,40.5400274 L71.4834126,40.5400274 L71.4834126,19.7194389 L80.6286458,19.7194389 C84.4281146,19.7194389 87.4765257,22.8646767 87.4765257,26.6301023 C87.4765257,29.1551524 86.1511296,31.7245016 84.2072153,33.1863727 C86.5045685,34.33815 87.4765257,36.9517983 87.4765257,39.3439511 L87.4765257,40.5400274 L83.2352581,40.5400274 L83.2352581,39.5654467 C83.2352581,37.2618922 81.556423,34.4267482 78.508012,34.4267482 L75.7246801,34.4267482 Z M78.508012,35.6228246 C80.8053652,35.6228246 82.0424016,37.7934817 82.0424016,39.5654467 L82.0424016,41.7361038 L88.6693822,41.7361038 L88.6693822,39.3439511 C88.6693822,36.9960975 88.050864,34.7368421 85.9302302,33.0534754 C87.697425,31.3258095 88.6693822,29.022255 88.6693822,26.6301023 C88.6693822,22.2001899 85.0908127,18.5233625 80.6286458,18.5233625 L70.2905561,18.5233625 L70.2905561,41.7361038 L76.9175366,41.7361038 L76.9175366,35.6228246 L78.508012,35.6228246 Z M81.7773224,27.0730936 C81.7773224,28.313469 80.7611854,29.3323489 79.524149,29.3323489 L76.9175366,29.3323489 L76.9175366,24.8138382 L79.524149,24.8138382 C80.7611854,24.8138382 81.7773224,25.8770172 81.7773224,27.0730936 L81.7773224,27.0730936 Z M101.834984,37.0403966 C105.590273,37.0403966 108.417784,33.9394579 108.417784,30.2183314 C108.417784,26.4529058 105.590273,23.3519671 101.834984,23.3519671 C98.1238745,23.3519671 95.2963627,26.4529058 95.2963627,30.2183314 C95.2963627,33.9394579 98.1238745,37.0403966 101.834984,37.0403966 L101.834984,37.0403966 Z M101.834984,41.1602152 C95.8265212,41.1602152 90.8341958,36.2430123 90.8341958,30.2183314 C90.8341958,24.1050522 95.8265212,19.2321485 101.834984,19.2321485 C107.887626,19.2321485 112.879951,24.1050522 112.879951,30.2183314 C112.879951,36.2430123 107.887626,41.1602152 101.834984,41.1602152 L101.834984,41.1602152 Z M101.834984,42.3562915 C108.550324,42.3562915 114.072808,36.9074992 114.072808,30.2183314 C114.072808,23.4405653 108.550324,18.0360721 101.834984,18.0360721 C95.1638231,18.0360721 89.6413393,23.4405653 89.6413393,30.2183314 C89.6413393,36.9074992 95.1638231,42.3562915 101.834984,42.3562915 L101.834984,42.3562915 Z M101.834984,35.8443202 C98.8307524,35.8443202 96.4892192,33.274971 96.4892192,30.2183314 C96.4892192,27.1173927 98.8307524,24.5480435 101.834984,24.5480435 C104.883395,24.5480435 107.224928,27.1173927 107.224928,30.2183314 C107.224928,33.274971 104.883395,35.8443202 101.834984,35.8443202 L101.834984,35.8443202 Z M117.253758,19.7194389 L121.495026,19.7194389 L121.495026,36.5531062 L129.977561,36.5531062 L129.977561,40.5400274 L117.253758,40.5400274 L117.253758,19.7194389 Z M116.060902,41.7361038 L131.170418,41.7361038 L131.170418,35.3570298 L122.687882,35.3570298 L122.687882,18.5233625 L116.060902,18.5233625 L116.060902,41.7361038 Z M143.89422,37.0403966 C147.649509,37.0403966 150.477021,33.9394579 150.477021,30.2183314 C150.477021,26.4529058 147.649509,23.3519671 143.89422,23.3519671 C140.183111,23.3519671 137.355599,26.4529058 137.355599,30.2183314 C137.355599,33.9394579 140.183111,37.0403966 143.89422,37.0403966 L143.89422,37.0403966 Z M143.89422,41.1602152 C137.885758,41.1602152 132.893432,36.2430123 132.893432,30.2183314 C132.893432,24.1050522 137.885758,19.2321485 143.89422,19.2321485 C149.946862,19.2321485 154.939188,24.1050522 154.939188,30.2183314 C154.939188,36.2430123 149.946862,41.1602152 143.89422,41.1602152 L143.89422,41.1602152 Z M143.89422,42.3562915 C150.609561,42.3562915 156.132044,36.9074992 156.132044,30.2183314 C156.132044,23.4405653 150.609561,18.0360721 143.89422,18.0360721 C137.22306,18.0360721 131.700576,23.4405653 131.700576,30.2183314 C131.700576,36.9074992 137.22306,42.3562915 143.89422,42.3562915 L143.89422,42.3562915 Z M143.89422,35.8443202 C140.889989,35.8443202 138.548456,33.274971 138.548456,30.2183314 C138.548456,27.1173927 140.889989,24.5480435 143.89422,24.5480435 C146.942631,24.5480435 149.284164,27.1173927 149.284164,30.2183314 C149.284164,33.274971 146.942631,35.8443202 143.89422,35.8443202 L143.89422,35.8443202 Z M173.892352,25.1239321 C172.743676,24.016454 171.1532,23.3519671 169.386005,23.3519671 C165.674896,23.3519671 162.847385,26.4529058 162.847385,30.2183314 C162.847385,33.9394579 165.674896,37.0403966 169.386005,37.0403966 C172.478596,37.0403966 174.73177,35.046936 175.615367,32.4775868 L169.120926,32.4775868 L169.120926,28.5792638 L180.298433,28.5792638 C180.386793,29.1108533 180.430973,29.6424428 180.430973,30.2183314 C180.430973,36.2430123 175.438648,41.1602152 169.386005,41.1602152 C163.377543,41.1602152 158.385218,36.2430123 158.385218,30.2183314 C158.385218,24.1050522 163.377543,19.2321485 169.386005,19.2321485 C173.141294,19.2321485 175.615367,20.6940196 177.294202,22.5102837 L173.892352,25.1239321 Z M178.884678,22.598882 C176.454785,19.8080371 173.362194,18.0360721 169.386005,18.0360721 C162.714845,18.0360721 157.192361,23.4405653 157.192361,30.2183314 C157.192361,36.9074992 162.714845,42.3562915 169.386005,42.3562915 C176.101346,42.3562915 181.62383,36.9074992 181.62383,30.2183314 C181.62383,29.5538445 181.53547,28.6235629 181.314571,27.3831874 L167.92807,27.3831874 L167.92807,33.6736631 L173.671453,33.6736631 C172.743676,35.0026369 171.28574,35.8443202 169.386005,35.8443202 C166.381774,35.8443202 164.040241,33.274971 164.040241,30.2183314 C164.040241,27.1173927 166.381774,24.5480435 169.386005,24.5480435 C171.24156,24.5480435 172.566956,25.1682312 173.627273,26.5858032 L178.884678,22.598882 Z M192.536258,41.115916 C188.42753,41.115916 185.114039,37.7934817 185.114039,33.6736631 L185.114039,19.7194389 L189.355307,19.7194389 L189.355307,33.8508596 C189.355307,35.6228246 190.769063,37.0403966 192.536258,37.0403966 C194.303452,37.0403966 195.717208,35.6228246 195.717208,33.8508596 L195.717208,19.7194389 L199.958476,19.7194389 L199.958476,33.6736631 C199.958476,37.7934817 196.644986,41.115916 192.536258,41.115916 L192.536258,41.115916 Z M192.536258,42.3119924 C197.307684,42.3119924 201.151332,38.4579686 201.151332,33.6736631 L201.151332,18.5233625 L194.524352,18.5233625 L194.524352,33.8508596 C194.524352,34.9583377 193.640754,35.8443202 192.536258,35.8443202 C191.431761,35.8443202 190.548163,34.9583377 190.548163,33.8508596 L190.548163,18.5233625 L183.921183,18.5233625 L183.921183,33.6736631 C183.921183,38.4579686 187.764832,42.3119924 192.536258,42.3119924 L192.536258,42.3119924 Z M205.34842,19.7194389 L217.630424,19.7194389 L217.630424,23.7063601 L209.589688,23.7063601 L209.589688,27.6932813 L217.188625,27.6932813 L217.188625,31.5916043 L209.589688,31.5916043 L209.589688,36.5531062 L217.807143,36.5531062 L217.807143,40.5400274 L205.34842,40.5400274 L205.34842,19.7194389 Z M204.155564,41.7361038 L219,41.7361038 L219,35.3570298 L210.782544,35.3570298 L210.782544,32.7876806 L218.381482,32.7876806 L218.381482,26.4972049 L210.782544,26.4972049 L210.782544,24.9024365 L218.823281,24.9024365 L218.823281,18.5233625 L204.155564,18.5233625 L204.155564,41.7361038 Z M68.4365568,52.1122244 C68.4365568,50.0681363 66.7875116,48.3607214 64.7321799,48.3607214 L59.7850442,48.3607214 L59.7850442,59.6633267 L62.079368,59.6633267 L62.079368,56.008016 L64.7321799,56.008016 C66.7875116,56.008016 68.4365568,54.2044088 68.4365568,52.1122244 Z M65.9988378,52.1843687 C65.9988378,53.1222445 65.2340632,53.8917836 64.3019941,53.8917836 L62.079368,53.8917836 L62.079368,50.4769539 L64.3019941,50.4769539 C65.2340632,50.4769539 65.9988378,51.246493 65.9988378,52.1843687 L65.9988378,52.1843687 Z M74.0050718,56.3446894 C75.6541171,56.3446894 76.5622869,57.8837675 76.5622869,59.1342685 L76.5622869,59.6633267 L78.8566107,59.6633267 L78.8566107,59.0140281 C78.8566107,57.7154309 78.3308281,56.2965932 77.0880694,55.6713427 C78.1396345,54.8777555 78.8566107,53.4829659 78.8566107,52.1122244 C78.8566107,50.0681363 77.2075654,48.3607214 75.1522337,48.3607214 L70.2050981,48.3607214 L70.2050981,59.6633267 L72.4994218,59.6633267 L72.4994218,56.3446894 L74.0050718,56.3446894 Z M76.4188916,52.3527054 C76.4188916,53.3867735 75.5824194,54.2284569 74.5547536,54.2284569 L72.4994218,54.2284569 L72.4994218,50.4769539 L74.5547536,50.4769539 C75.5824194,50.4769539 76.4188916,51.3426854 76.4188916,52.3527054 L76.4188916,52.3527054 Z M86.0024733,60 C89.2766645,60 91.9772748,57.3306613 91.9772748,54.0601202 C91.9772748,50.741483 89.2766645,48.0961924 86.0024733,48.0961924 C82.7521813,48.0961924 80.051571,50.741483 80.051571,54.0601202 C80.051571,57.3306613 82.7521813,60 86.0024733,60 L86.0024733,60 Z M86.0024733,57.7635271 C83.99494,57.7635271 82.4653908,56.0801603 82.4653908,54.0601202 C82.4653908,52.0160321 83.99494,50.3326653 86.0024733,50.3326653 C88.0339058,50.3326653 89.563455,52.0160321 89.563455,54.0601202 C89.563455,56.0801603 88.0339058,57.7635271 86.0024733,57.7635271 L86.0024733,57.7635271 Z M96.2074343,57.498998 L96.2074343,50.4769539 L98.4061613,50.4769539 C100.461493,50.4769539 101.895445,52.0400802 101.895445,53.987976 C101.895445,55.9358717 100.461493,57.498998 98.4061613,57.498998 L96.2074343,57.498998 Z M93.9131105,59.6633267 L99.0275406,59.6633267 C102.110538,59.6633267 104.47656,57.1142285 104.47656,53.987976 C104.47656,50.8617234 102.038841,48.3607214 99.0275406,48.3607214 L93.9131105,48.3607214 L93.9131105,59.6633267 Z M110.427462,59.9759519 C112.650088,59.9759519 114.442529,58.1723447 114.442529,55.9358717 L114.442529,48.3607214 L112.148205,48.3607214 L112.148205,56.0320641 C112.148205,56.993988 111.38343,57.7635271 110.427462,57.7635271 C109.471494,57.7635271 108.706719,56.993988 108.706719,56.0320641 L108.706719,48.3607214 L106.412395,48.3607214 L106.412395,55.9358717 C106.412395,58.1723447 108.204836,59.9759519 110.427462,59.9759519 L110.427462,59.9759519 Z M116.139372,54.0601202 C116.139372,57.3547094 118.839982,60 122.090275,60 C122.759452,60 123.380832,59.8797595 123.978312,59.6873747 L123.978312,57.2104208 C123.548126,57.498998 122.878948,57.7635271 122.090275,57.7635271 C120.082741,57.7635271 118.553192,56.0801603 118.553192,54.0601202 C118.553192,52.0160321 120.082741,50.3326653 122.090275,50.3326653 C122.878948,50.3326653 123.524227,50.5971944 123.978312,50.8857715 L123.978312,48.4088176 C123.380832,48.1923848 122.759452,48.0961924 122.090275,48.0961924 C118.839982,48.0961924 116.139372,50.741483 116.139372,54.0601202 L116.139372,54.0601202 Z M128.304068,59.6633267 L130.598392,59.6633267 L130.598392,50.5731463 L133.322901,50.5731463 L133.322901,48.3607214 L125.53176,48.3607214 L125.53176,50.5731463 L128.304068,50.5731463 L128.304068,59.6633267 Z M135.497729,59.6633267 L137.792053,59.6633267 L137.792053,48.3607214 L135.497729,48.3607214 L135.497729,59.6633267 Z M145.678791,60 C148.952982,60 151.653592,57.3306613 151.653592,54.0601202 C151.653592,50.741483 148.952982,48.0961924 145.678791,48.0961924 C142.428499,48.0961924 139.727889,50.741483 139.727889,54.0601202 C139.727889,57.3306613 142.428499,60 145.678791,60 L145.678791,60 Z M145.678791,57.7635271 C143.671258,57.7635271 142.141708,56.0801603 142.141708,54.0601202 C142.141708,52.0160321 143.671258,50.3326653 145.678791,50.3326653 C147.710223,50.3326653 149.239773,52.0160321 149.239773,54.0601202 C149.239773,56.0801603 147.710223,57.7635271 145.678791,57.7635271 L145.678791,57.7635271 Z M153.23094,59.6633267 L155.381869,59.6633267 L155.381869,51.6072144 L162.288739,59.9519038 L162.288739,48.3607214 L160.137811,48.3607214 L160.137811,54.1322645 L155.238473,48.3607214 L153.23094,48.3607214 L153.23094,59.6633267 Z M113.538125,9.59519038 L114.350698,11.5911824 L116.764518,11.5911824 L111.673987,0 L106.583456,11.5911824 L108.997276,11.5911824 L109.833748,9.59519038 L113.538125,9.59519038 Z M38.2297071,26.9573064 C38.4239643,27.9095229 38.5258324,28.8941343 38.5258324,29.9019115 C38.5258324,38.2027845 31.6145848,44.9319716 23.0891288,44.9319716 C19.3587614,44.9319716 15.9374432,43.6436314 13.2689209,41.4990081 C6.89996499,43.9930511 2.17496975,44.7100252 1.1868709,42.9985878 C0.258633888,41.3908341 2.83666214,37.9980647 7.5836862,34.0537485 C7.66485522,34.4198975 7.75992193,34.7842079 7.86867033,35.1463055 C4.2307764,38.2323862 2.2939963,40.7751786 2.97997935,41.9633361 C3.71929246,43.243864 7.34331653,42.6733269 12.3968716,40.7427047 C9.4725369,38.0077053 7.65242514,34.1617641 7.65242514,29.9019115 C7.65242514,21.6010385 14.5636728,14.8718514 23.0891288,14.8718514 C30.175355,14.8718514 36.1463771,19.5208284 37.9604319,25.8571474 C41.8304546,22.6347454 43.9183984,19.9636 43.2099588,18.7365467 C42.5458771,17.5863234 39.5537062,17.9298651 35.2884334,19.4112687 C35.0301445,19.1339122 34.7630216,18.8673424 34.4873575,18.611889 C40.0558882,16.6044075 44.0979411,16.1335706 45.0030672,17.701295 C45.9556953,19.3512952 43.21683,22.8807682 38.2297071,26.9573064 Z M37.1497748,27.8210286 C37.2611041,28.4992254 37.3188785,29.194184 37.3188785,29.9019115 C37.3188785,37.3290084 30.9561767,43.34986 23.1073863,43.34986 C20.0317136,43.34986 17.1842429,42.4253051 14.8584218,40.8538768 C18.261012,39.4259271 22.0524596,37.5429661 25.9489744,35.2933123 C30.2242832,32.8249615 34.0540344,30.2454329 37.1497748,27.8210286 Z M36.9152344,26.7064121 C35.3996422,20.8219324 29.7925734,16.453963 23.1073863,16.453963 C15.2585959,16.453963 8.8958941,22.4748146 8.8958941,29.9019115 C8.8958941,34.0051186 10.8378987,37.6791158 13.899606,40.145781 C17.3349478,38.7313881 21.3085734,36.7688285 25.4277914,34.3905969 C29.8996693,31.808757 33.8614877,29.1305794 36.9152344,26.7064121 Z M112.821149,7.5511022 L110.526825,7.5511022 L111.673987,4.83366733 L112.821149,7.5511022 Z M25.533689,42.0271143 C26.6675923,42.0271143 27.5868025,41.1341618 27.5868025,40.0326492 C27.5868025,38.9311365 26.6675923,38.038184 25.533689,38.038184 C24.3997857,38.038184 23.4805754,38.9311365 23.4805754,40.0326492 C23.4805754,41.1341618 24.3997857,42.0271143 25.533689,42.0271143 Z M25.9443117,24.4414668 C27.758557,24.4414668 29.2292934,23.0127429 29.2292934,21.2503226 C29.2292934,19.4879023 27.758557,18.0591784 25.9443117,18.0591784 C24.1300664,18.0591784 22.65933,19.4879023 22.65933,21.2503226 C22.65933,23.0127429 24.1300664,24.4414668 25.9443117,24.4414668 Z M14.4468759,34.0148994 C15.8075598,34.0148994 16.9106121,32.9433564 16.9106121,31.6215412 C16.9106121,30.299726 15.8075598,29.2281831 14.4468759,29.2281831 C13.0861919,29.2281831 11.9831396,30.299726 11.9831396,31.6215412 C11.9831396,32.9433564 13.0861919,34.0148994 14.4468759,34.0148994 Z M38.2297071,26.9573064 C38.1538492,26.5854636 38.0639026,26.2185607 37.9604319,25.8571474 C37.6251859,26.1362924 37.276567,26.4195741 36.9152344,26.7064121 C37.0094757,27.0723159 37.0878973,27.4440832 37.1497748,27.8210286 C37.5204402,27.5307449 37.8805827,27.2426851 38.2297071,26.9573064 Z M12.3968716,40.7427047 C12.6775905,41.0052486 12.9684847,41.2575552 13.2689209,41.4990081 C13.7882041,41.2956601 14.3184158,41.0804987 14.8584218,40.8538768 C14.5280082,40.6306346 14.2081225,40.3943373 13.899606,40.145781 C13.386237,40.3571444 12.8848887,40.5562663 12.3968716,40.7427047 Z" id="prologue" sketch:type="MSShapeGroup"></path>
        </g>
    </g>
</svg>