<?xml version="1.0" encoding="UTF-8" standalone="no"?>
<svg width="223px" height="60px" viewBox="0 0 223 60" version="1.1" xmlns="http://www.w3.org/2000/svg" xmlns:xlink="http://www.w3.org/1999/xlink" xmlns:sketch="http://www.bohemiancoding.com/sketch/ns">
    <!-- Generator: Sketch 3.2 (9961) - http://www.bohemiancoding.com/sketch -->
    <title>APrologueProduction</title>
    <desc>Created with Sketch.</desc>
    <defs></defs>
    <g id="Page-2" stroke="none" stroke-width="1" fill="none" fill-rule="evenodd" sketch:type="MSPage">
        <g id="newHomePage-2" sketch:type="MSArtboardGroup" transform="translate(-389.000000, -6185.000000)" fill="#2C88DC">
            <g id="APrologueProduction" sketch:type="MSLayerGroup" transform="translate(389.000000, 6185.000000)">
                <path d="M95.3607309,52.008 C95.3607309,49.968 93.713346,48.264 91.6600837,48.264 L86.7179292,48.264 L86.7179292,59.544 L89.0099429,59.544 L89.0099429,55.896 L91.6600837,55.896 C93.713346,55.896 95.3607309,54.096 95.3607309,52.008 L95.3607309,52.008 Z M92.9254663,52.08 C92.9254663,53.016 92.1614617,53.784 91.2303312,53.784 L89.0099429,53.784 L89.0099429,50.376 L91.2303312,50.376 C92.1614617,50.376 92.9254663,51.144 92.9254663,52.08 L92.9254663,52.08 Z M100.923639,56.232 C102.571024,56.232 103.478279,57.768 103.478279,59.016 L103.478279,59.544 L105.770293,59.544 L105.770293,58.896 C105.770293,57.6 105.24504,56.184 104.003533,55.56 C105.054039,54.768 105.770293,53.376 105.770293,52.008 C105.770293,49.968 104.122908,48.264 102.069646,48.264 L97.1274914,48.264 L97.1274914,59.544 L99.4195051,59.544 L99.4195051,56.232 L100.923639,56.232 Z M103.335029,52.248 C103.335029,53.28 102.499399,54.12 101.472767,54.12 L99.4195051,54.12 L99.4195051,50.376 L101.472767,50.376 C102.499399,50.376 103.335029,51.24 103.335029,52.248 L103.335029,52.248 Z M112.908961,59.88 C116.179855,59.88 118.877746,57.216 118.877746,53.952 C118.877746,50.64 116.179855,48 112.908961,48 C109.661941,48 106.96405,50.64 106.96405,53.952 C106.96405,57.216 109.661941,59.88 112.908961,59.88 L112.908961,59.88 Z M112.908961,57.648 C110.903449,57.648 109.37544,55.968 109.37544,53.952 C109.37544,51.912 110.903449,50.232 112.908961,50.232 C114.938348,50.232 116.466357,51.912 116.466357,53.952 C116.466357,55.968 114.938348,57.648 112.908961,57.648 L112.908961,57.648 Z M123.103647,57.384 L123.103647,50.376 L125.30016,50.376 C127.353422,50.376 128.785931,51.936 128.785931,53.88 C128.785931,55.824 127.353422,57.384 125.30016,57.384 L123.103647,57.384 Z M120.811633,59.544 L125.920914,59.544 C129.000807,59.544 131.364446,57 131.364446,53.88 C131.364446,50.76 128.929182,48.264 125.920914,48.264 L120.811633,48.264 L120.811633,59.544 Z M137.309357,59.856 C139.529745,59.856 141.320381,58.056 141.320381,55.824 L141.320381,48.264 L139.028367,48.264 L139.028367,55.92 C139.028367,56.88 138.264362,57.648 137.309357,57.648 C136.354351,57.648 135.590346,56.88 135.590346,55.92 L135.590346,48.264 L133.298333,48.264 L133.298333,55.824 C133.298333,58.056 135.088968,59.856 137.309357,59.856 L137.309357,59.856 Z M143.015516,53.952 C143.015516,57.24 145.713407,59.88 148.960426,59.88 C149.62893,59.88 150.249684,59.76 150.846563,59.568 L150.846563,57.096 C150.41681,57.384 149.748306,57.648 148.960426,57.648 C146.954914,57.648 145.426905,55.968 145.426905,53.952 C145.426905,51.912 146.954914,50.232 148.960426,50.232 C149.748306,50.232 150.392935,50.496 150.846563,50.784 L150.846563,48.312 C150.249684,48.096 149.62893,48 148.960426,48 C145.713407,48 143.015516,50.64 143.015516,53.952 L143.015516,53.952 Z M155.167963,59.544 L157.459977,59.544 L157.459977,50.472 L160.181743,50.472 L160.181743,48.264 L152.398447,48.264 L152.398447,50.472 L155.167963,50.472 L155.167963,59.544 Z M162.354381,59.544 L164.646395,59.544 L164.646395,48.264 L162.354381,48.264 L162.354381,59.544 Z M172.525192,59.88 C175.796087,59.88 178.493978,57.216 178.493978,53.952 C178.493978,50.64 175.796087,48 172.525192,48 C169.278173,48 166.580282,50.64 166.580282,53.952 C166.580282,57.216 169.278173,59.88 172.525192,59.88 L172.525192,59.88 Z M172.525192,57.648 C170.51968,57.648 168.991671,55.968 168.991671,53.952 C168.991671,51.912 170.51968,50.232 172.525192,50.232 C174.554579,50.232 176.082589,51.912 176.082589,53.952 C176.082589,55.968 174.554579,57.648 172.525192,57.648 L172.525192,57.648 Z M180.069737,59.544 L182.2185,59.544 L182.2185,51.504 L189.118416,59.832 L189.118416,48.264 L186.969654,48.264 L186.969654,54.024 L182.075249,48.264 L180.069737,48.264 L180.069737,59.544 Z" id="production" sketch:type="MSShapeGroup"></path>
                <path d="M141.415881,9.576 L142.227636,11.568 L144.639026,11.568 L139.55362,0 L134.468215,11.568 L136.879604,11.568 L137.715234,9.576 L141.415881,9.576 Z M140.699627,7.536 L138.407613,7.536 L139.55362,4.824 L140.699627,7.536 Z" id="a" sketch:type="MSShapeGroup"></path>
                <path d="M37.210912,26.3978237 C37.4059985,27.3505293 37.508315,28.3357652 37.508315,29.3442458 C37.508315,37.628517 30.604026,44.3442458 22.0871541,44.3442458 C18.3629549,44.3442458 14.9470941,43.0601462 12.2820114,40.9223033 C5.91631535,43.4170097 1.19373382,44.1359532 0.207236907,42.4272905 C-0.719143633,40.8227523 1.85710783,37.4348174 6.59986985,33.4953692 C6.68077954,33.8608419 6.77557026,34.2244732 6.88402645,34.5858897 C3.24937149,37.668129 1.31392884,40.2073 1.99853993,41.3930812 C2.73669291,42.6715997 6.3592207,42.0994585 11.4106755,40.168039 C8.48635249,37.4382177 6.66599316,33.5980098 6.66599316,29.3442458 C6.66599316,21.0599745 13.5702821,14.3442458 22.0871541,14.3442458 C29.1636147,14.3442458 35.1268219,18.9804771 36.9414616,25.300522 C40.8083656,22.0818951 42.8950694,19.4143355 42.1880131,18.189678 C41.5252595,17.0417552 38.5366965,17.3859819 34.2761403,18.8666248 C34.0182948,18.5898652 33.7516218,18.3238772 33.4764136,18.0689898 C39.0388182,16.0626302 43.0760002,15.5908798 43.9793161,17.1554688 C44.9300112,18.8021211 42.1932527,22.3264321 37.210912,26.3978237 Z M24.5292529,41.4451982 C25.6620145,41.4451982 26.5802993,40.5540316 26.5802993,39.454722 C26.5802993,38.3554123 25.6620145,37.4642458 24.5292529,37.4642458 C23.3964913,37.4642458 22.4782066,38.3554123 22.4782066,39.454722 C22.4782066,40.5540316 23.3964913,41.4451982 24.5292529,41.4451982 Z M24.9394622,23.894722 C26.7518808,23.894722 28.2211363,22.4688555 28.2211363,20.7099601 C28.2211363,18.9510646 26.7518808,17.5251982 24.9394622,17.5251982 C23.1270436,17.5251982 21.6577881,18.9510646 21.6577881,20.7099601 C21.6577881,22.4688555 23.1270436,23.894722 24.9394622,23.894722 Z M13.4536028,33.4490077 C14.8129167,33.4490077 15.9148584,32.3796078 15.9148584,31.0604363 C15.9148584,29.7412647 14.8129167,28.6718648 13.4536028,28.6718648 C12.0942888,28.6718648 10.9923472,29.7412647 10.9923472,31.0604363 C10.9923472,32.3796078 12.0942888,33.4490077 13.4536028,33.4490077 Z M37.210912,26.3978237 C37.1349665,26.026944 37.044962,25.6609941 36.9414616,25.300522 C33.775823,27.935449 29.4171176,30.9396941 24.4214331,33.8239538 C19.6941655,36.5532431 15.1590266,38.7348602 11.4106755,40.168039 C11.6911745,40.4298816 11.9818306,40.681508 12.2820114,40.9223033 C16.0675171,39.4387695 20.4340866,37.3272627 24.9415737,34.7248638 C29.724175,31.9636277 33.9488455,29.0634683 37.210912,26.3978237 Z" id="Path" sketch:type="MSShapeGroup"></path>
                <path d="M72.0081127,26.0789826 C72.0081127,21.65793 68.4304225,17.9884563 63.9693521,17.9884563 L53.6338028,17.9884563 L53.6338028,41.1547721 L60.2591549,41.1547721 L60.2591549,34.4347721 L63.9693521,34.4347721 C68.4304225,34.4347721 72.0081127,30.5884563 72.0081127,26.0789826 L72.0081127,26.0789826 Z M65.1177465,26.2116142 C65.1177465,27.2726668 64.2343662,28.1568774 63.1743099,28.1568774 L60.2591549,28.1568774 L60.2591549,24.266351 L63.1743099,24.266351 C64.2343662,24.266351 65.1177465,25.1505616 65.1177465,26.2116142 L65.1177465,26.2116142 Z M82.2111549,35.0537195 C84.5079437,35.0537195 85.7446761,37.2200353 85.7446761,38.9884563 L85.7446761,41.1547721 L92.3700282,41.1547721 L92.3700282,38.7674037 C92.3700282,36.4242458 91.751662,34.1695089 89.6315493,32.4895089 C91.3983099,30.7652984 92.3700282,28.466351 92.3700282,26.0789826 C92.3700282,21.65793 88.792338,17.9884563 84.3312676,17.9884563 L73.9957183,17.9884563 L73.9957183,41.1547721 L80.6210704,41.1547721 L80.6210704,35.0537195 L82.2111549,35.0537195 Z M85.479662,26.5210879 C85.479662,27.7589826 84.4637746,28.7758247 83.2270423,28.7758247 L80.6210704,28.7758247 L80.6210704,24.266351 L83.2270423,24.266351 C84.4637746,24.266351 85.479662,25.3274037 85.479662,26.5210879 L85.479662,26.5210879 Z M105.532394,41.7737195 C112.246085,41.7737195 117.767211,36.3358247 117.767211,29.6600353 C117.767211,22.8958247 112.246085,17.5021405 105.532394,17.5021405 C98.8628732,17.5021405 93.3417465,22.8958247 93.3417465,29.6600353 C93.3417465,36.3358247 98.8628732,41.7737195 105.532394,41.7737195 L105.532394,41.7737195 Z M105.532394,35.2747721 C102.528901,35.2747721 100.187944,32.7105616 100.187944,29.6600353 C100.187944,26.5652984 102.528901,24.0010879 105.532394,24.0010879 C108.580056,24.0010879 110.921014,26.5652984 110.921014,29.6600353 C110.921014,32.7105616 108.580056,35.2747721 105.532394,35.2747721 L105.532394,35.2747721 Z M119.754817,41.1547721 L134.86062,41.1547721 L134.86062,34.7884563 L126.380169,34.7884563 L126.380169,17.9884563 L119.754817,17.9884563 L119.754817,41.1547721 Z M147.581296,41.7737195 C154.294986,41.7737195 159.816113,36.3358247 159.816113,29.6600353 C159.816113,22.8958247 154.294986,17.5021405 147.581296,17.5021405 C140.911775,17.5021405 135.390648,22.8958247 135.390648,29.6600353 C135.390648,36.3358247 140.911775,41.7737195 147.581296,41.7737195 L147.581296,41.7737195 Z M147.581296,35.2747721 C144.577803,35.2747721 142.236845,32.7105616 142.236845,29.6600353 C142.236845,26.5652984 144.577803,24.0010879 147.581296,24.0010879 C150.628958,24.0010879 152.969915,26.5652984 152.969915,29.6600353 C152.969915,32.7105616 150.628958,35.2747721 147.581296,35.2747721 L147.581296,35.2747721 Z M182.563155,22.0558247 C180.133859,19.2705616 177.042028,17.5021405 173.066817,17.5021405 C166.397296,17.5021405 160.876169,22.8958247 160.876169,29.6600353 C160.876169,36.3358247 166.397296,41.7737195 173.066817,41.7737195 C179.780507,41.7737195 185.301634,36.3358247 185.301634,29.6600353 C185.301634,28.9968774 185.213296,28.0684563 184.992451,26.8305616 L171.609239,26.8305616 L171.609239,33.1084563 L177.351211,33.1084563 C176.423662,34.4347721 174.966085,35.2747721 173.066817,35.2747721 C170.063324,35.2747721 167.722366,32.7105616 167.722366,29.6600353 C167.722366,26.5652984 170.063324,24.0010879 173.066817,24.0010879 C174.921915,24.0010879 176.246986,24.6200353 177.307042,26.0347721 L182.563155,22.0558247 Z M196.21138,41.7295089 C200.981634,41.7295089 204.824338,37.8831932 204.824338,33.1084563 L204.824338,17.9884563 L198.198986,17.9884563 L198.198986,33.2852984 C198.198986,34.3905616 197.315606,35.2747721 196.21138,35.2747721 C195.107155,35.2747721 194.223775,34.3905616 194.223775,33.2852984 L194.223775,17.9884563 L187.598423,17.9884563 L187.598423,33.1084563 C187.598423,37.8831932 191.441127,41.7295089 196.21138,41.7295089 L196.21138,41.7295089 Z M207.827831,41.1547721 L222.66862,41.1547721 L222.66862,34.7884563 L214.453183,34.7884563 L214.453183,32.2242458 L222.050254,32.2242458 L222.050254,25.946351 L214.453183,25.946351 L214.453183,24.3547721 L222.491944,24.3547721 L222.491944,17.9884563 L207.827831,17.9884563 L207.827831,41.1547721 Z" id="prologue" sketch:type="MSShapeGroup"></path>
            </g>
        </g>
    </g>
</svg>