<?xml version="1.0" encoding="UTF-8" standalone="no"?>
<svg width="28px" height="31px" viewBox="0 0 28 31" version="1.1" xmlns="http://www.w3.org/2000/svg" xmlns:xlink="http://www.w3.org/1999/xlink" xmlns:sketch="http://www.bohemiancoding.com/sketch/ns">
    <!-- Generator: Sketch 3.2 (9961) - http://www.bohemiancoding.com/sketch -->
    <title>Diary</title>
    <desc>Created with Sketch.</desc>
    <defs></defs>
    <g id="Page-2" stroke="none" stroke-width="1" fill="none" fill-rule="evenodd" sketch:type="MSPage">
        <g id="Artboard-2" sketch:type="MSArtboardGroup" transform="translate(-68.000000, -528.000000)" fill="#4990E2">
            <path d="M90,528.208667 L70,528.208667 C68.895,528.208667 68,529.104667 68,530.208667 L68,556.208667 C68,557.313667 68.895,558.208667 70,558.208667 L90,558.208667 C95,558.208667 96,557.208667 96,553.208667 L96,534.208667 C96,530.208667 95,528.208667 90,528.208667 L90,528.208667 Z M70,530.208667 L73,530.208667 L73,556.208667 L70,556.208667 L70,530.208667 Z M94,553.208667 C94,555.208667 93,556.208667 91,556.208667 L74,556.208667 L74,530.208667 L84,530.208667 L84,540.208667 L87,538.208667 L90,540.208667 L90,530.208667 L91,530.208667 C93,530.208667 94,531.208667 94,533.208667 L94,553.208667 L94,553.208667 Z" id="Diary" sketch:type="MSShapeGroup"></path>
        </g>
    </g>
</svg>