<?xml version="1.0" encoding="UTF-8" standalone="no"?>
<svg width="42px" height="79px" viewBox="0 0 42 79" version="1.1" xmlns="http://www.w3.org/2000/svg" xmlns:xlink="http://www.w3.org/1999/xlink" xmlns:sketch="http://www.bohemiancoding.com/sketch/ns">
    <!-- Generator: Sketch 3.2.2 (9983) - http://www.bohemiancoding.com/sketch -->
    <title>emptyiPhoneicon</title>
    <desc>Created with Sketch.</desc>
    <defs></defs>
    <g id="Page-1" stroke="none" stroke-width="1" fill="none" fill-rule="evenodd" sketch:type="MSPage">
        <g id="HomePage" sketch:type="MSArtboardGroup" transform="translate(-479.000000, -169.000000)" fill="#FFFFFF">
            <path d="M479,173.235778 C479,171.025381 480.791252,169.2335 483.008111,169.2335 L516.991889,169.2335 C519.205508,169.2335 521,171.027924 521,173.235778 L521,243.231222 C521,245.441619 519.208748,247.2335 516.991889,247.2335 L483.008111,247.2335 C480.794492,247.2335 479,245.439076 479,243.231222 L479,173.235778 Z M483,177.2335 L517,177.2335 L517,239.2335 L483,239.2335 L483,177.2335 Z M493,173.2335 C493,172.681215 493.449949,172.2335 494.006845,172.2335 L505.993155,172.2335 C506.54922,172.2335 507,172.677365 507,173.2335 C507,173.785785 506.550051,174.2335 505.993155,174.2335 L494.006845,174.2335 C493.45078,174.2335 493,173.789635 493,173.2335 Z M498,243.2335 C498,242.128931 498.88773,241.2335 500,241.2335 C501.104569,241.2335 502,242.12123 502,243.2335 C502,244.338069 501.11227,245.2335 500,245.2335 C498.895431,245.2335 498,244.34577 498,243.2335 Z" id="emptyiPhoneicon" sketch:type="MSShapeGroup"></path>
        </g>
    </g>
</svg>