<?xml version="1.0" encoding="UTF-8" standalone="no"?>
<svg width="171px" height="62px" viewBox="0 0 171 62" version="1.1" xmlns="http://www.w3.org/2000/svg" xmlns:xlink="http://www.w3.org/1999/xlink" xmlns:sketch="http://www.bohemiancoding.com/sketch/ns">
    <!-- Generator: Sketch 3.0.4 (8053) - http://www.bohemiancoding.com/sketch -->
    <title>logo@2x</title>
    <desc>Created with Sketch.</desc>
    <defs></defs>
    <g id="Welcome" stroke="none" stroke-width="1" fill="none" fill-rule="evenodd" sketch:type="MSPage">
        <g id="Desktop-2" sketch:type="MSArtboardGroup">
            <rect id="Rectangle-1" fill="#FFFFFF" sketch:type="MSShapeGroup" x="32" y="0" width="960" height="1894"></rect>
            <g id="prologue-5-+-moon1" sketch:type="MSLayerGroup" transform="translate(10.000000, 10.000000)">
                <g id="moon1" sketch:type="MSShapeGroup">
                    <path d="M29.5233499,38.6842105 C39.9044806,38.6842105 48.3200498,30.2493837 48.3200498,19.8444976 C48.3200498,9.43961147 39.9044806,1.00478469 29.5233499,1.00478469 C19.1422192,1.00478469 10.7266501,9.43961147 10.7266501,19.8444976 C10.7266501,30.2493837 19.1422192,38.6842105 29.5233499,38.6842105 Z M32.5,35.0430622 C33.8807119,35.0430622 35,33.9237741 35,32.5430622 C35,31.1623503 33.8807119,30.0430622 32.5,30.0430622 C31.1192881,30.0430622 30,31.1623503 30,32.5430622 C30,33.9237741 31.1192881,35.0430622 32.5,35.0430622 Z M33,13 C35.209139,13 37,11.209139 37,9 C37,6.790861 35.209139,5 33,5 C30.790861,5 29,6.790861 29,9 C29,11.209139 30.790861,13 33,13 Z M19,25 C20.6568542,25 22,23.6568542 22,22 C22,20.3431458 20.6568542,19 19,19 C17.3431458,19 16,20.3431458 16,22 C16,23.6568542 17.3431458,25 19,25 Z" id="Path" fill="#4990E2"></path>
                    <path d="M49.0436702,14.7066098 C49.1788373,15.1566818 49.2982296,15.6134681 49.4017388,16.0764271 C54.8015089,17.1415036 58.1659926,18.6438734 58.1659926,20.3086849 C58.1659926,23.5387853 45.5035016,26.1570217 29.8835409,26.1570217 C14.2636883,26.1570217 1.6011973,23.5387853 1.6011973,20.3086849 C1.6011973,18.5889681 5.19171591,17.0425224 10.9068759,15.9724644 C11.0126542,15.511238 11.1342074,15.0561845 11.2715354,14.6078452 C3.86424723,15.9144185 -0.919977543,17.9816524 -0.919977543,20.3086849 C-0.919977543,24.2603516 12.8712832,27.463595 29.8835409,27.463595 C46.8959067,27.463595 60.6871675,24.2603516 60.6871675,20.3086849 C60.6871675,18.03959 56.1380535,16.0174066 49.0436702,14.7066098" id="Fill-2" fill="#4990E2" transform="translate(29.883595, 21.035720) rotate(-30.000000) translate(-29.883595, -21.035720) "></path>
                    <path d="M47.6995621,15.0326303 C43.8527123,18.2699562 38.5416394,21.9505655 32.444199,25.4709244 C26.582307,28.8552893 20.9555277,31.5361859 16.3294426,33.2601317 C16.669096,33.5954844 17.021418,33.9179832 17.3856237,34.2268413 C22.0715724,32.4341275 27.4987616,29.8348748 33.0974856,26.60245 C38.9163503,23.2429269 44.050252,19.7019081 48.0108573,16.4359627 C47.9245672,15.9617517 47.8205646,15.4937363 47.6995621,15.0326303 Z" id="Path-2" fill="#FFFFFF"></path>
                    <path d="M70.735741,15.7952153 C69.719884,14.8038282 68.4968454,14.308134 67.0666252,14.308134 C65.6364049,14.308134 64.4801989,14.9846888 63.5980075,16.337799 L63.5980075,14.4688995 L61.3524284,14.4688995 L61.3524284,29.0583732 L63.5980075,29.0583732 L63.5980075,23.5521531 C64.6673307,24.7311006 65.8736613,25.3205742 67.2169988,25.3205742 C68.5603362,25.3205742 69.7365917,24.8047846 70.7457659,23.7732057 C71.7549394,22.7416272 72.2595268,21.4019142 72.2595268,19.754067 C72.2595268,18.1062201 71.7515986,16.7866031 70.735741,15.7952153 Z M64.4801993,22.3363636 C63.8653382,21.686603 63.5579078,20.8526317 63.5579078,19.8344498 C63.5579078,18.8162743 63.8653382,17.9689061 64.4801993,17.2923445 C65.0950575,16.6157897 65.850267,16.277512 66.7458281,16.277512 C67.6413863,16.277512 68.4099626,16.6157897 69.0515567,17.2923445 C69.6931507,17.9688993 70.0139477,18.8196172 70.0139477,19.8444976 C70.0139477,20.869378 69.6864672,21.7033493 69.0315068,22.3464115 C68.3765465,22.9894737 67.6079701,23.3110048 66.7257783,23.3110048 C65.8435866,23.3110057 65.09506,22.9861252 64.4801993,22.3363636 Z M80.4198007,16.5789474 L80.5400996,16.5789474 L80.5200498,14.308134 C79.8249898,14.3215315 79.1666874,14.5425841 78.5451432,14.9712919 C77.923599,15.3999818 77.4323786,15.9492643 77.0714819,16.6191388 L77.0714819,14.4688995 L74.8259029,14.4688995 L74.8259029,25.1598086 L77.0714819,25.1598086 L77.0714819,20.5779904 C77.0714819,19.3588519 77.3521793,18.3875598 77.9135741,17.6641148 C78.4749689,16.9406699 79.3103775,16.5789474 80.4198007,16.5789474 Z M87.4973848,25.3205742 C89.1013699,25.3205742 90.4380239,24.7880383 91.5073474,23.7229665 C92.5766704,22.6578954 93.1113325,21.3550246 93.1113325,19.8143541 C93.1113325,18.2736844 92.5766704,16.9708134 91.5073474,15.9057416 C90.4380239,14.8406699 89.1013699,14.308134 87.4973848,14.308134 C85.8933998,14.308134 84.5567454,14.8406699 83.4874222,15.9057416 C82.4180989,16.9708134 81.8834371,18.2736844 81.8834371,19.8143541 C81.8834368,21.3550237 82.4180986,22.6578947 83.4874222,23.7229665 C84.5567454,24.7880383 85.8933998,25.3205742 87.4973848,25.3205742 Z M87.4973848,23.3110048 C86.5216274,23.3110057 85.7162932,22.9861252 85.0813823,22.3363636 C84.4464715,21.6866033 84.1290162,20.8459335 84.1290162,19.8143541 C84.1290162,18.7827749 84.4464715,17.9421055 85.0813823,17.2923445 C85.7162932,16.6425835 86.5216274,16.3177033 87.4973848,16.3177033 C88.4731348,16.3177033 89.2784688,16.6425835 89.9133873,17.2923445 C90.5482978,17.9420987 90.8657534,18.7827688 90.8657534,19.8143541 C90.8657534,20.8459329 90.5482978,21.686603 89.9133873,22.3363636 C89.2784768,22.9861243 88.4731422,23.3110048 87.4973848,23.3110048 Z M97.9032379,25.1598086 L97.9032379,10.2488038 L95.6576588,10.2488038 L95.6576588,25.1598086 L97.9032379,25.1598086 Z M106.063512,25.3205742 C107.667497,25.3205742 109.004151,24.7880383 110.073474,23.7229665 C111.142797,22.6578954 111.67746,21.3550246 111.67746,19.8143541 C111.67746,18.2736844 111.142797,16.9708134 110.073474,15.9057416 C109.004151,14.8406699 107.667497,14.308134 106.063512,14.308134 C104.459527,14.308134 103.122872,14.8406699 102.053549,15.9057416 C100.984226,16.9708134 100.449564,18.2736844 100.449564,19.8143541 C100.449564,21.3550237 100.984226,22.6578947 102.053549,23.7229665 C103.122872,24.7880383 104.459527,25.3205742 106.063512,25.3205742 Z M106.063512,23.3110048 C105.087754,23.3110057 104.28242,22.9861252 103.647509,22.3363636 C103.012598,21.6866033 102.695143,20.8459335 102.695143,19.8143541 C102.695143,18.7827749 103.012598,17.9421055 103.647509,17.2923445 C104.28242,16.6425835 105.087754,16.3177033 106.063512,16.3177033 C107.039262,16.3177033 107.844596,16.6425835 108.479514,17.2923445 C109.114425,17.9420987 109.43188,18.7827688 109.43188,19.8143541 C109.43188,20.8459329 109.114425,21.686603 108.479514,22.3363636 C107.844604,22.9861243 107.039269,23.3110048 106.063512,23.3110048 Z M124.088294,14.4688995 L121.842715,14.4688995 L121.842715,16.0564593 C120.960523,14.8909091 119.814342,14.308134 118.404172,14.308134 C116.994001,14.308134 115.834454,14.8038282 114.925529,15.7952153 C114.016605,16.7865988 113.562142,18.0191349 113.562142,19.492823 C113.562142,20.9665074 114.016604,22.1990432 114.925529,23.1904306 C115.834454,24.1818184 116.997343,24.677512 118.414197,24.677512 C119.189456,24.677512 119.887858,24.4899523 120.509402,24.1148325 C121.130946,23.7397131 121.608801,23.2373208 121.942964,22.6076555 L121.942964,23.9741627 C121.942964,25.1799043 121.632192,26.0574161 121.010648,26.6066986 C120.389103,27.1559811 119.547011,27.430622 118.484371,27.430622 C117.421731,27.4306208 116.369116,27.0354057 115.326526,26.2449761 L114.263885,27.95311 C115.560439,28.9578947 117.010709,29.4602871 118.614695,29.4602871 C120.21868,29.4602871 121.531943,28.9880383 122.554483,28.0435407 C123.577024,27.0990431 124.088294,25.6822967 124.088294,23.7933014 L124.088294,14.4688995 Z M116.579639,21.6732057 C116.038294,21.036842 115.767621,20.2799044 115.767621,19.4023923 C115.767621,18.5248837 116.038294,17.7578982 116.579639,17.1014354 C117.120984,16.4449763 117.846119,16.1167464 118.755044,16.1167464 C119.663969,16.1167464 120.405812,16.4349284 120.980573,17.0712919 C121.555334,17.7076553 121.842715,18.4846892 121.842715,19.4023923 C121.842715,20.3200946 121.558676,21.0870803 120.990598,21.7033493 C120.42252,22.3196173 119.680676,22.6277512 118.765068,22.6277512 C117.849461,22.6277512 117.120984,22.3095695 116.579639,21.6732057 Z M134.794894,20.2564593 C134.794894,21.2478468 134.507513,22.0014353 133.932752,22.5172249 C133.357991,23.0330141 132.68298,23.2909091 131.907721,23.2909091 C130.277005,23.2909091 129.461646,22.3062201 129.461644,20.3368421 L129.461644,14.4688995 L127.216065,14.4688995 L127.216065,21.0200957 C127.216065,22.4133967 127.586986,23.4784685 128.328829,24.215311 C129.070672,24.9521529 130.043088,25.3205742 131.246077,25.3205742 C131.981231,25.3205742 132.666266,25.1330145 133.301183,24.7578947 C133.936094,24.3827753 134.433998,23.8669857 134.794894,23.2105263 L134.794894,25.1598086 L137.040473,25.1598086 L137.040473,14.4688995 L134.794894,14.4688995 L134.794894,20.2564593 Z M150.2132,20.7990431 L150.2132,19.2516746 C150.2132,17.7110123 149.705272,16.5019216 148.689415,15.6244019 C147.673558,14.7468895 146.440494,14.308134 144.990224,14.308134 C143.539954,14.308134 142.280158,14.8038282 141.210834,15.7952153 C140.141511,16.7866031 139.606849,18.1229667 139.606849,19.8043062 C139.606849,21.4856457 140.131486,22.8253587 141.18076,23.823445 C142.230032,24.8215312 143.503195,25.3205742 145.000249,25.3205742 C146.844832,25.3205742 148.341884,24.7244018 149.491407,23.5320574 L148.208219,22.1253589 C147.513159,22.969378 146.497302,23.3913876 145.160648,23.3913876 C144.318555,23.3913876 143.570029,23.1535883 142.915068,22.6779904 C142.260111,22.2023922 141.905898,21.5760767 141.852428,20.7990431 L150.2132,20.7990431 Z M141.852428,19.030622 C141.852428,18.1732059 142.179909,17.4933014 142.834869,16.9909091 C143.48983,16.4885167 144.228331,16.2373206 145.050374,16.2373206 C145.872416,16.2373206 146.564134,16.4784689 147.125529,16.9607656 C147.686924,17.4430622 147.967621,18.1330146 147.967621,19.030622 L141.852428,19.030622 Z" id="prologue-2" fill="#4990E2"></path>
                </g>
            </g>
        </g>
    </g>
</svg>