<?xml version="1.0" encoding="UTF-8" standalone="no"?>
<svg width="122px" height="20px" viewBox="0 0 122 20" version="1.1" xmlns="http://www.w3.org/2000/svg" xmlns:xlink="http://www.w3.org/1999/xlink" xmlns:sketch="http://www.bohemiancoding.com/sketch/ns">
    <!-- Generator: Sketch 3.1.1 (8761) - http://www.bohemiancoding.com/sketch -->
    <title>logo</title>
    <desc>Created with Sketch.</desc>
    <defs></defs>
    <g id="Page-1" stroke="none" stroke-width="1" fill="none" fill-rule="evenodd" sketch:type="MSPage">
        <g id="newHomePage" sketch:type="MSArtboardGroup" transform="translate(-20.000000, -12.000000)" fill="#FFFFFF">
            <g id="logo" sketch:type="MSLayerGroup" transform="translate(20.000000, 12.000000)">
                <path d="M42.3833126,5.94066986 C41.3674556,4.94928271 40.144417,4.45358852 38.7141968,4.45358852 C37.2839765,4.45358852 36.1277706,5.13014334 35.2455791,6.48325359 L35.2455791,4.61435407 L33,4.61435407 L33,19.2038278 L35.2455791,19.2038278 L35.2455791,13.6976077 C36.3149023,14.8765551 37.5212329,15.4660287 38.8645704,15.4660287 C40.2079078,15.4660287 41.3841633,14.9502391 42.3933375,13.9186603 C43.402511,12.8870817 43.9070984,11.5473687 43.9070984,9.89952153 C43.9070984,8.25167464 43.3991702,6.93205762 42.3833126,5.94066986 Z M36.1277709,12.4818182 C35.5129098,11.8320575 35.2054795,10.9980862 35.2054795,9.97990431 C35.2054795,8.96172883 35.5129098,8.11436061 36.1277709,7.43779904 C36.7426291,6.76124422 37.4978386,6.42296651 38.3933998,6.42296651 C39.2889579,6.42296651 40.0575342,6.76124422 40.6991283,7.43779904 C41.3407223,8.11435386 41.6615193,8.96507177 41.6615193,9.98995215 C41.6615193,11.0148325 41.3340388,11.8488038 40.6790785,12.491866 C40.0241181,13.1349282 39.2555417,13.4564593 38.3733499,13.4564593 C37.4911582,13.4564603 36.7426316,13.1315798 36.1277709,12.4818182 Z M52.0673724,6.72440191 L52.1876712,6.72440191 L52.1676214,4.45358852 C51.4725614,4.46698605 50.814259,4.68803869 50.1927148,5.11674641 C49.5711706,5.54543635 49.0799502,6.09471885 48.7190535,6.7645933 L48.7190535,4.61435407 L46.4734745,4.61435407 L46.4734745,15.3052632 L48.7190535,15.3052632 L48.7190535,10.723445 C48.7190535,9.50430642 48.9997509,8.53301435 49.5611457,7.80956938 C50.1225405,7.0861244 50.9579492,6.72440191 52.0673724,6.72440191 Z M59.1449564,15.4660287 C60.7489415,15.4660287 62.0855955,14.9334928 63.1549191,13.8684211 C64.224242,12.8033499 64.7589041,11.5004792 64.7589041,9.95980861 C64.7589041,8.41913896 64.224242,7.11626794 63.1549191,6.05119617 C62.0855955,4.9861244 60.7489415,4.45358852 59.1449564,4.45358852 C57.5409714,4.45358852 56.204317,4.9861244 55.1349938,6.05119617 C54.0656705,7.11626794 53.5310087,8.41913896 53.5310087,9.95980861 C53.5310084,11.5004783 54.0656702,12.8033493 55.1349938,13.8684211 C56.204317,14.9334928 57.5409714,15.4660287 59.1449564,15.4660287 Z M59.1449564,13.4564593 C58.169199,13.4564603 57.3638648,13.1315798 56.7289539,12.4818182 C56.0940431,11.8320578 55.7765878,10.9913881 55.7765878,9.95980861 C55.7765878,8.92822946 56.0940431,8.08756001 56.7289539,7.43779904 C57.3638648,6.78803807 58.169199,6.46315789 59.1449564,6.46315789 C60.1207064,6.46315789 60.9260404,6.78803807 61.5609589,7.43779904 C62.1958695,8.08755327 62.513325,8.92822333 62.513325,9.95980861 C62.513325,10.9913875 62.1958695,11.8320575 61.5609589,12.4818182 C60.9260484,13.1315788 60.1207138,13.4564593 59.1449564,13.4564593 Z M69.5508095,15.3052632 L69.5508095,0.394258373 L67.3052304,0.394258373 L67.3052304,15.3052632 L69.5508095,15.3052632 Z M77.7110834,15.4660287 C79.3150685,15.4660287 80.6517225,14.9334928 81.7210461,13.8684211 C82.790369,12.8033499 83.3250311,11.5004792 83.3250311,9.95980861 C83.3250311,8.41913896 82.790369,7.11626794 81.7210461,6.05119617 C80.6517225,4.9861244 79.3150685,4.45358852 77.7110834,4.45358852 C76.1070984,4.45358852 74.7704441,4.9861244 73.7011208,6.05119617 C72.6317975,7.11626794 72.0971357,8.41913896 72.0971357,9.95980861 C72.0971354,11.5004783 72.6317972,12.8033493 73.7011208,13.8684211 C74.7704441,14.9334928 76.1070984,15.4660287 77.7110834,15.4660287 Z M77.7110834,13.4564593 C76.7353261,13.4564603 75.9299918,13.1315798 75.2950809,12.4818182 C74.6601701,11.8320578 74.3427148,10.9913881 74.3427148,9.95980861 C74.3427148,8.92822946 74.6601701,8.08756001 75.2950809,7.43779904 C75.9299918,6.78803807 76.7353261,6.46315789 77.7110834,6.46315789 C78.6868335,6.46315789 79.4921674,6.78803807 80.1270859,7.43779904 C80.7619965,8.08755327 81.0794521,8.92822333 81.0794521,9.95980861 C81.0794521,10.9913875 80.7619965,11.8320575 80.1270859,12.4818182 C79.4921754,13.1315788 78.6868408,13.4564593 77.7110834,13.4564593 Z M95.7358655,4.61435407 L93.4902864,4.61435407 L93.4902864,6.20191388 C92.6080946,5.03636364 91.4619139,4.45358852 90.0517435,4.45358852 C88.6415731,4.45358852 87.4820256,4.94928271 86.5731009,5.94066986 C85.6641761,6.93205333 85.2097136,8.16458942 85.2097136,9.63827751 C85.2097133,11.1119619 85.6641758,12.3444977 86.5731009,13.3358852 C87.4820253,14.3272729 88.6449145,14.8229665 90.0617684,14.8229665 C90.8370276,14.8229665 91.5354296,14.6354068 92.1569738,14.2602871 C92.7785181,13.8851677 93.2563721,13.3827753 93.5905355,12.75311 L93.5905355,14.1196172 C93.5905355,15.3253589 93.2797634,16.2028706 92.6582192,16.7521531 C92.036675,17.3014356 91.1945828,17.5760766 90.1319427,17.5760766 C89.0693026,17.5760753 88.0166874,17.1808602 86.9740971,16.3904306 L85.911457,18.0985646 C87.2080108,19.1033493 88.6582805,19.6057416 90.2622665,19.6057416 C91.8662516,19.6057416 93.1795143,19.1334928 94.2020548,18.1889952 C95.2245953,17.2444976 95.7358655,15.8277512 95.7358655,13.938756 L95.7358655,4.61435407 Z M88.2272105,11.8186603 C87.6858655,11.1822965 87.415193,10.425359 87.415193,9.54784689 C87.415193,8.6703382 87.6858655,7.90335276 88.2272105,7.24688995 C88.7685554,6.59043083 89.4936901,6.26220096 90.4026152,6.26220096 C91.3115403,6.26220096 92.0533834,6.58038298 92.6281445,7.21674641 C93.2029056,7.85310984 93.4902864,8.63014375 93.4902864,9.54784689 C93.4902864,10.4655491 93.2062476,11.2325349 92.6381694,11.8488038 C92.0700911,12.4650719 91.328248,12.7732057 90.4126401,12.7732057 C89.4970322,12.7732057 88.7685554,12.455024 88.2272105,11.8186603 Z M106.442466,10.4019139 C106.442466,11.3933013 106.155085,12.1468898 105.580324,12.6626794 C105.005563,13.1784687 104.330552,13.4363636 103.555293,13.4363636 C101.924576,13.4363636 101.109217,12.4516746 101.109215,10.4822967 L101.109215,4.61435407 L98.8636364,4.61435407 L98.8636364,11.1655502 C98.8636364,12.5588513 99.2345579,13.623923 99.976401,14.3607656 C100.718244,15.0976075 101.69066,15.4660287 102.893649,15.4660287 C103.628802,15.4660287 104.313837,15.278469 104.948755,14.9033493 C105.583665,14.5282299 106.081569,14.0124403 106.442466,13.3559809 L106.442466,15.3052632 L108.688045,15.3052632 L108.688045,4.61435407 L106.442466,4.61435407 L106.442466,10.4019139 Z M121.860772,10.9444976 L121.860772,9.39712919 C121.860772,7.85646689 121.352844,6.64737619 120.336986,5.76985646 C119.321129,4.89234409 118.088066,4.45358852 116.637796,4.45358852 C115.187526,4.45358852 113.927729,4.94928271 112.858406,5.94066986 C111.789083,6.93205762 111.254421,8.26842126 111.254421,9.94976077 C111.254421,11.6311003 111.779057,12.9708133 112.828331,13.9688995 C113.877604,14.9669857 115.150767,15.4660287 116.647821,15.4660287 C118.492403,15.4660287 119.989456,14.8698564 121.138979,13.677512 L119.855791,12.2708134 C119.160731,13.1148325 118.144873,13.5368421 116.808219,13.5368421 C115.966127,13.5368421 115.217601,13.2990429 114.56264,12.823445 C113.907683,12.3478468 113.553469,11.7215312 113.5,10.9444976 L121.860772,10.9444976 Z M113.5,9.17607656 C113.5,8.31866049 113.82748,7.63875598 114.482441,7.13636364 C115.137402,6.63397129 115.875903,6.38277512 116.697945,6.38277512 C117.519988,6.38277512 118.211706,6.62392344 118.773101,7.1062201 C119.334496,7.58851675 119.615193,8.2784691 119.615193,9.17607656 L113.5,9.17607656 Z" id="Path" sketch:type="MSShapeGroup"></path>
                <path d="M23.588114,8.02358009 C23.7124003,8.62839219 23.7775925,9.25392693 23.7775925,9.89425837 C23.7775925,15.1409635 19.4007665,19.3942584 14.001678,19.3942584 C11.642246,19.3942584 9.47803945,18.58199 7.78901908,17.2295124 C3.75173427,18.8128786 0.756550916,19.2702489 0.131545676,18.187708 C-0.455162,17.1715005 1.17848726,15.0246403 4.18536923,12.5278478 C4.23655395,12.7593473 4.29653666,12.9896768 4.36518085,13.2185998 C2.06081566,15.1720801 0.833516821,16.7810985 1.26710384,17.5320932 C1.73479127,18.3421516 4.03250491,17.9781503 7.23655625,16.7521269 C5.38098763,15.0230666 4.22576352,12.5897633 4.22576352,9.89425837 C4.22576352,4.64755325 8.60258953,0.394258373 14.001678,0.394258373 C18.4860727,0.394258373 22.26524,3.32847564 23.4170347,7.32901546 C25.8688433,5.28895193 27.1921818,3.59844461 26.7443591,2.82279303 C26.3246152,2.09577526 24.4304357,2.31460698 21.7297998,3.25366594 C21.5664539,3.07841014 21.3975105,2.90998023 21.2231548,2.74858457 C24.7490114,1.47615788 27.3078172,1.17627186 27.8799173,2.16717822 C28.4820079,3.21002981 26.7467076,5.44323063 23.588114,8.02358009 Z M15.5497943,17.5581949 C16.2678842,17.5581949 16.8500111,16.9937894 16.8500111,16.29756 C16.8500111,15.6013305 16.2678842,15.036925 15.5497943,15.036925 C14.8317043,15.036925 14.2495774,15.6013305 14.2495774,16.29756 C14.2495774,16.9937894 14.8317043,17.5581949 15.5497943,17.5581949 Z M15.8098376,6.44289329 C16.9587816,6.44289329 17.8901846,5.53984453 17.8901846,4.42587742 C17.8901846,3.31191031 16.9587816,2.40886155 15.8098376,2.40886155 C14.6608937,2.40886155 13.7294907,3.31191031 13.7294907,4.42587742 C13.7294907,5.53984453 14.6608937,6.44289329 15.8098376,6.44289329 Z M8.52862318,12.4939409 C9.39033112,12.4939409 10.0888834,11.8166543 10.0888834,10.981179 C10.0888834,10.1457037 9.39033112,9.4684171 8.52862318,9.4684171 C7.66691524,9.4684171 6.96836294,10.1457037 6.96836294,10.981179 C6.96836294,11.8166543 7.66691524,12.4939409 8.52862318,12.4939409 Z M23.588114,8.02358009 C23.5398719,7.78882091 23.4827267,7.55718385 23.4170347,7.32901546 C21.4100653,8.99894405 18.6469624,10.9030934 15.4802307,12.7314068 C12.4851266,14.4606309 9.61179722,15.843246 7.23655625,16.7521269 C7.41441,16.917855 7.5986978,17.0771133 7.78901908,17.2295124 C10.1875762,16.2888321 12.9539499,14.9507241 15.809653,13.3019831 C18.8416059,11.5514843 21.5199602,9.71311667 23.588114,8.02358009 Z" id="Path" sketch:type="MSShapeGroup"></path>
            </g>
        </g>
    </g>
</svg>