<?xml version="1.0" encoding="UTF-8" standalone="no"?>
<svg width="149px" height="22px" viewBox="0 0 149 22" version="1.1" xmlns="http://www.w3.org/2000/svg" xmlns:xlink="http://www.w3.org/1999/xlink" xmlns:sketch="http://www.bohemiancoding.com/sketch/ns">
    <!-- Generator: Sketch 3.1.1 (8761) - http://www.bohemiancoding.com/sketch -->
    <title>Artboard 3</title>
    <desc>Created with Sketch.</desc>
    <defs></defs>
    <g id="Page-1" stroke="none" stroke-width="1" fill="none" fill-rule="evenodd" sketch:type="MSPage">
        <g id="Artboard-3" sketch:type="MSArtboardGroup" fill="#FFFFFF">
            <g id="Path-+-prologue" sketch:type="MSLayerGroup" transform="translate(4.000000, 2.000000)">
                <path d="M23.588114,7.62932171 C23.7124003,8.23413382 23.7775925,8.85966856 23.7775925,9.5 C23.7775925,14.7467051 19.4007665,19 14.001678,19 C11.642246,19 9.47803945,18.1877316 7.78901908,16.835254 C3.75173427,18.4186202 0.756550916,18.8759905 0.131545676,17.7934497 C-0.455162,16.7772422 1.17848726,14.6303819 4.18536923,12.1335894 C4.23655395,12.3650889 4.29653666,12.5954184 4.36518085,12.8243414 C2.06081566,14.7778218 0.833516821,16.3868401 1.26710384,17.1378349 C1.73479127,17.9478933 4.03250491,17.5838919 7.23655625,16.3578685 C5.38098763,14.6288082 4.22576352,12.195505 4.22576352,9.5 C4.22576352,4.25329488 8.60258953,2.84217094e-14 14.001678,2.84217094e-14 C18.4860727,2.84217094e-14 22.26524,2.93421727 23.4170347,6.93475708 C25.8688433,4.89469355 27.1921818,3.20418624 26.7443591,2.42853466 C26.3246152,1.70151689 24.4304357,1.9203486 21.7297998,2.85940757 C21.5664539,2.68415177 21.3975105,2.51572186 21.2231548,2.3543262 C24.7490114,1.08189951 27.3078172,0.782013491 27.8799173,1.77291985 C28.4820079,2.81577144 26.7467076,5.04897225 23.588114,7.62932171 Z M15.5497943,17.1639365 C16.2678842,17.1639365 16.8500111,16.599531 16.8500111,15.9033016 C16.8500111,15.2070721 16.2678842,14.6426667 15.5497943,14.6426667 C14.8317043,14.6426667 14.2495774,15.2070721 14.2495774,15.9033016 C14.2495774,16.599531 14.8317043,17.1639365 15.5497943,17.1639365 Z M15.8098376,6.04863492 C16.9587816,6.04863492 17.8901846,5.14558615 17.8901846,4.03161905 C17.8901846,2.91765194 16.9587816,2.01460317 15.8098376,2.01460317 C14.6608937,2.01460317 13.7294907,2.91765194 13.7294907,4.03161905 C13.7294907,5.14558615 14.6608937,6.04863492 15.8098376,6.04863492 Z M8.52862318,12.0996825 C9.39033112,12.0996825 10.0888834,11.422396 10.0888834,10.5869206 C10.0888834,9.7514453 9.39033112,9.07415873 8.52862318,9.07415873 C7.66691524,9.07415873 6.96836294,9.7514453 6.96836294,10.5869206 C6.96836294,11.422396 7.66691524,12.0996825 8.52862318,12.0996825 Z M23.588114,7.62932171 C23.5398719,7.39456254 23.4827267,7.16292548 23.4170347,6.93475708 C21.4100653,8.60468567 18.6469624,10.5088351 15.4802307,12.3371485 C12.4851266,14.0663726 9.61179722,15.4489877 7.23655625,16.3578685 C7.41441,16.5235966 7.5986978,16.6828549 7.78901908,16.835254 C10.1875762,15.8945738 12.9539499,14.5564658 15.809653,12.9077248 C18.8416059,11.1572259 21.5199602,9.31885829 23.588114,7.62932171 Z" id="Path" sketch:type="MSShapeGroup"></path>
                <path d="M45.648,7.432 C45.648,4.632 43.38,2.308 40.552,2.308 L34,2.308 L34,16.98 L38.2,16.98 L38.2,12.724 L40.552,12.724 C43.38,12.724 45.648,10.288 45.648,7.432 L45.648,7.432 Z M41.28,7.516 C41.28,8.188 40.72,8.748 40.048,8.748 L38.2,8.748 L38.2,6.284 L40.048,6.284 C40.72,6.284 41.28,6.844 41.28,7.516 L41.28,7.516 Z M52.116,13.116 C53.572,13.116 54.356,14.488 54.356,15.608 L54.356,16.98 L58.556,16.98 L58.556,15.468 C58.556,13.984 58.164,12.556 56.82,11.492 C57.94,10.4 58.556,8.944 58.556,7.432 C58.556,4.632 56.288,2.308 53.46,2.308 L46.908,2.308 L46.908,16.98 L51.108,16.98 L51.108,13.116 L52.116,13.116 Z M54.188,7.712 C54.188,8.496 53.544,9.14 52.76,9.14 L51.108,9.14 L51.108,6.284 L52.76,6.284 C53.544,6.284 54.188,6.956 54.188,7.712 L54.188,7.712 Z M66.9,17.372 C71.156,17.372 74.656,13.928 74.656,9.7 C74.656,5.416 71.156,2 66.9,2 C62.672,2 59.172,5.416 59.172,9.7 C59.172,13.928 62.672,17.372 66.9,17.372 L66.9,17.372 Z M66.9,13.256 C64.996,13.256 63.512,11.632 63.512,9.7 C63.512,7.74 64.996,6.116 66.9,6.116 C68.832,6.116 70.316,7.74 70.316,9.7 C70.316,11.632 68.832,13.256 66.9,13.256 L66.9,13.256 Z M75.916,16.98 L85.492,16.98 L85.492,12.948 L80.116,12.948 L80.116,2.308 L75.916,2.308 L75.916,16.98 Z M93.556,17.372 C97.812,17.372 101.312,13.928 101.312,9.7 C101.312,5.416 97.812,2 93.556,2 C89.328,2 85.828,5.416 85.828,9.7 C85.828,13.928 89.328,17.372 93.556,17.372 L93.556,17.372 Z M93.556,13.256 C91.652,13.256 90.168,11.632 90.168,9.7 C90.168,7.74 91.652,6.116 93.556,6.116 C95.488,6.116 96.972,7.74 96.972,9.7 C96.972,11.632 95.488,13.256 93.556,13.256 L93.556,13.256 Z M115.732,4.884 C114.192,3.12 112.232,2 109.712,2 C105.484,2 101.984,5.416 101.984,9.7 C101.984,13.928 105.484,17.372 109.712,17.372 C113.968,17.372 117.468,13.928 117.468,9.7 C117.468,9.28 117.412,8.692 117.272,7.908 L108.788,7.908 L108.788,11.884 L112.428,11.884 C111.84,12.724 110.916,13.256 109.712,13.256 C107.808,13.256 106.324,11.632 106.324,9.7 C106.324,7.74 107.808,6.116 109.712,6.116 C110.888,6.116 111.728,6.508 112.4,7.404 L115.732,4.884 Z M124.384,17.344 C127.408,17.344 129.844,14.908 129.844,11.884 L129.844,2.308 L125.644,2.308 L125.644,11.996 C125.644,12.696 125.084,13.256 124.384,13.256 C123.684,13.256 123.124,12.696 123.124,11.996 L123.124,2.308 L118.924,2.308 L118.924,11.884 C118.924,14.908 121.36,17.344 124.384,17.344 L124.384,17.344 Z M131.748,16.98 L141.156,16.98 L141.156,12.948 L135.948,12.948 L135.948,11.324 L140.764,11.324 L140.764,7.348 L135.948,7.348 L135.948,6.34 L141.044,6.34 L141.044,2.308 L131.748,2.308 L131.748,16.98 Z" id="prologue" sketch:type="MSShapeGroup"></path>
            </g>
        </g>
    </g>
</svg>