<?xml version="1.0" encoding="UTF-8" standalone="no"?>
<svg width="223px" height="60px" viewBox="0 0 223 60" version="1.1" xmlns="http://www.w3.org/2000/svg" xmlns:xlink="http://www.w3.org/1999/xlink" xmlns:sketch="http://www.bohemiancoding.com/sketch/ns">
    <!-- Generator: Sketch 3.2.2 (9983) - http://www.bohemiancoding.com/sketch -->
    <title>Artboard 18</title>
    <desc>Created with Sketch.</desc>
    <defs></defs>
    <g id="Page-1" stroke="none" stroke-width="1" fill="none" fill-rule="evenodd" sketch:type="MSPage">
        <g id="Artboard-18" sketch:type="MSArtboardGroup" fill="#FFFFFF">
            <g id="prologue" sketch:type="MSLayerGroup" transform="translate(27.000000, 0.000000)">
                <path d="M12.673896,26.7629997 C12.673896,25.0353338 11.2607787,23.6177618 9.53854194,23.6177618 L5.43166972,23.6177618 L5.43166972,29.9082375 L9.53854194,29.9082375 C11.2607787,29.9082375 12.673896,28.4906655 12.673896,26.7629997 L12.673896,26.7629997 Z M17.1782075,26.6301023 C17.1782075,30.4841261 14.1311732,33.8065605 10.3334204,33.8065605 L5.43166972,33.8065605 L5.43166972,40.5400274 L1.19231774,40.5400274 L1.19231774,19.7194389 L10.3334204,19.7194389 C14.1311732,19.7194389 17.1782075,22.8646767 17.1782075,26.6301023 L17.1782075,26.6301023 Z M18.3705252,26.6301023 C18.3705252,22.2001899 14.793572,18.5233625 10.3334204,18.5233625 L0,18.5233625 L0,41.7361038 L6.62398746,41.7361038 L6.62398746,35.0026369 L10.3334204,35.0026369 C14.793572,35.0026369 18.3705252,31.148613 18.3705252,26.6301023 L18.3705252,26.6301023 Z M11.4815783,26.7629997 C11.4815783,27.8261787 10.5983799,28.7121612 9.53854194,28.7121612 L6.62398746,28.7121612 L6.62398746,24.8138382 L9.53854194,24.8138382 C10.5983799,24.8138382 11.4815783,25.6998207 11.4815783,26.7629997 L11.4815783,26.7629997 Z M33.0316175,27.0730936 C33.0316175,25.2125303 31.4860204,23.6177618 29.587144,23.6177618 L25.7893912,23.6177618 L25.7893912,30.5284253 L29.587144,30.5284253 C31.4860204,30.5284253 33.0316175,28.9779559 33.0316175,27.0730936 L33.0316175,27.0730936 Z M25.7893912,34.4267482 L25.7893912,40.5400274 L21.5500392,40.5400274 L21.5500392,19.7194389 L30.6911419,19.7194389 C34.4888947,19.7194389 37.5359289,22.8646767 37.5359289,26.6301023 C37.5359289,29.1551524 36.2111314,31.7245016 34.2680951,33.1863727 C36.5644108,34.33815 37.5359289,36.9517983 37.5359289,39.3439511 L37.5359289,40.5400274 L33.296577,40.5400274 L33.296577,39.5654467 C33.296577,37.2618922 31.6185001,34.4267482 28.5714659,34.4267482 L25.7893912,34.4267482 Z M28.5714659,35.6228246 C30.8677816,35.6228246 32.1042592,37.7934817 32.1042592,39.5654467 L32.1042592,41.7361038 L38.7282467,41.7361038 L38.7282467,39.3439511 C38.7282467,36.9960975 38.1100078,34.7368421 35.9903319,33.0534754 C37.7567285,31.3258095 38.7282467,29.022255 38.7282467,26.6301023 C38.7282467,22.2001899 35.1512934,18.5233625 30.6911419,18.5233625 L20.3577215,18.5233625 L20.3577215,41.7361038 L26.9817089,41.7361038 L26.9817089,35.6228246 L28.5714659,35.6228246 Z M31.8392997,27.0730936 C31.8392997,28.313469 30.8236216,29.3323489 29.587144,29.3323489 L26.9817089,29.3323489 L26.9817089,24.8138382 L29.587144,24.8138382 C30.8236216,24.8138382 31.8392997,25.8770172 31.8392997,27.0730936 L31.8392997,27.0730936 Z M51.8879018,37.0403966 C55.6414946,37.0403966 58.4677293,33.9394579 58.4677293,30.2183314 C58.4677293,26.4529058 55.6414946,23.3519671 51.8879018,23.3519671 C48.1784688,23.3519671 45.3522341,26.4529058 45.3522341,30.2183314 C45.3522341,33.9394579 48.1784688,37.0403966 51.8879018,37.0403966 L51.8879018,37.0403966 Z M51.8879018,41.1602152 C45.8821531,41.1602152 40.8920826,36.2430123 40.8920826,30.2183314 C40.8920826,24.1050522 45.8821531,19.2321485 51.8879018,19.2321485 C57.9378103,19.2321485 62.9278808,24.1050522 62.9278808,30.2183314 C62.9278808,36.2430123 57.9378103,41.1602152 51.8879018,41.1602152 L51.8879018,41.1602152 Z M51.8879018,42.3562915 C58.600209,42.3562915 64.1201986,36.9074992 64.1201986,30.2183314 C64.1201986,23.4405653 58.600209,18.0360721 51.8879018,18.0360721 C45.2197544,18.0360721 39.6997648,23.4405653 39.6997648,30.2183314 C39.6997648,36.9074992 45.2197544,42.3562915 51.8879018,42.3562915 L51.8879018,42.3562915 Z M51.8879018,35.8443202 C48.8850274,35.8443202 46.5445519,33.274971 46.5445519,30.2183314 C46.5445519,27.1173927 48.8850274,24.5480435 51.8879018,24.5480435 C54.934936,24.5480435 57.2754115,27.1173927 57.2754115,30.2183314 C57.2754115,33.274971 54.934936,35.8443202 51.8879018,35.8443202 L51.8879018,35.8443202 Z M67.2997126,19.7194389 L71.5390645,19.7194389 L71.5390645,36.5531062 L80.0177685,36.5531062 L80.0177685,40.5400274 L67.2997126,40.5400274 L67.2997126,19.7194389 Z M66.1073948,41.7361038 L81.2100862,41.7361038 L81.2100862,35.3570298 L72.7313823,35.3570298 L72.7313823,18.5233625 L66.1073948,18.5233625 L66.1073948,41.7361038 Z M93.9281421,37.0403966 C97.681735,37.0403966 100.50797,33.9394579 100.50797,30.2183314 C100.50797,26.4529058 97.681735,23.3519671 93.9281421,23.3519671 C90.2187092,23.3519671 87.3924745,26.4529058 87.3924745,30.2183314 C87.3924745,33.9394579 90.2187092,37.0403966 93.9281421,37.0403966 L93.9281421,37.0403966 Z M93.9281421,41.1602152 C87.9223935,41.1602152 82.932323,36.2430123 82.932323,30.2183314 C82.932323,24.1050522 87.9223935,19.2321485 93.9281421,19.2321485 C99.9780507,19.2321485 104.968121,24.1050522 104.968121,30.2183314 C104.968121,36.2430123 99.9780507,41.1602152 93.9281421,41.1602152 L93.9281421,41.1602152 Z M93.9281421,42.3562915 C100.640449,42.3562915 106.160439,36.9074992 106.160439,30.2183314 C106.160439,23.4405653 100.640449,18.0360721 93.9281421,18.0360721 C87.2599948,18.0360721 81.7400052,23.4405653 81.7400052,30.2183314 C81.7400052,36.9074992 87.2599948,42.3562915 93.9281421,42.3562915 L93.9281421,42.3562915 Z M93.9281421,35.8443202 C90.9252678,35.8443202 88.5847923,33.274971 88.5847923,30.2183314 C88.5847923,27.1173927 90.9252678,24.5480435 93.9281421,24.5480435 C96.9751764,24.5480435 99.3156519,27.1173927 99.3156519,30.2183314 C99.3156519,33.274971 96.9751764,35.8443202 93.9281421,35.8443202 L93.9281421,35.8443202 Z M123.912725,25.1239321 C122.764568,24.016454 121.174811,23.3519671 119.408414,23.3519671 C115.698981,23.3519671 112.872746,26.4529058 112.872746,30.2183314 C112.872746,33.9394579 115.698981,37.0403966 119.408414,37.0403966 C122.499608,37.0403966 124.751764,35.046936 125.634962,32.4775868 L119.143454,32.4775868 L119.143454,28.5792638 L130.315913,28.5792638 C130.404233,29.1108533 130.448393,29.6424428 130.448393,30.2183314 C130.448393,36.2430123 125.458322,41.1602152 119.408414,41.1602152 C113.402665,41.1602152 108.412595,36.2430123 108.412595,30.2183314 C108.412595,24.1050522 113.402665,19.2321485 119.408414,19.2321485 C123.162007,19.2321485 125.634962,20.6940196 127.313039,22.5102837 L123.912725,25.1239321 Z M128.902796,22.598882 C126.474001,19.8080371 123.382806,18.0360721 119.408414,18.0360721 C112.740267,18.0360721 107.220277,23.4405653 107.220277,30.2183314 C107.220277,36.9074992 112.740267,42.3562915 119.408414,42.3562915 C126.120721,42.3562915 131.640711,36.9074992 131.640711,30.2183314 C131.640711,29.5538445 131.552391,28.6235629 131.331591,27.3831874 L117.951137,27.3831874 L117.951137,33.6736631 L123.691926,33.6736631 C122.764568,35.0026369 121.30729,35.8443202 119.408414,35.8443202 C116.40554,35.8443202 114.065064,33.274971 114.065064,30.2183314 C114.065064,27.1173927 116.40554,24.5480435 119.408414,24.5480435 C121.26313,24.5480435 122.587928,25.1682312 123.647766,26.5858032 L128.902796,22.598882 Z M142.54821,41.115916 C138.441338,41.115916 135.129344,37.7934817 135.129344,33.6736631 L135.129344,19.7194389 L139.368696,19.7194389 L139.368696,33.8508596 C139.368696,35.6228246 140.781813,37.0403966 142.54821,37.0403966 C144.314607,37.0403966 145.727724,35.6228246 145.727724,33.8508596 L145.727724,19.7194389 L149.967076,19.7194389 L149.967076,33.6736631 C149.967076,37.7934817 146.655082,41.115916 142.54821,41.115916 L142.54821,41.115916 Z M142.54821,42.3119924 C147.317481,42.3119924 151.159394,38.4579686 151.159394,33.6736631 L151.159394,18.5233625 L144.535406,18.5233625 L144.535406,33.8508596 C144.535406,34.9583377 143.652208,35.8443202 142.54821,35.8443202 C141.444212,35.8443202 140.561014,34.9583377 140.561014,33.8508596 L140.561014,18.5233625 L133.937026,18.5233625 L133.937026,33.6736631 C133.937026,38.4579686 137.778939,42.3119924 142.54821,42.3119924 L142.54821,42.3119924 Z M155.354586,19.7194389 L167.631043,19.7194389 L167.631043,23.7063601 L159.593938,23.7063601 L159.593938,27.6932813 L167.189443,27.6932813 L167.189443,31.5916043 L159.593938,31.5916043 L159.593938,36.5531062 L167.807682,36.5531062 L167.807682,40.5400274 L155.354586,40.5400274 L155.354586,19.7194389 Z M154.162268,41.7361038 L169,41.7361038 L169,35.3570298 L160.786256,35.3570298 L160.786256,32.7876806 L168.381761,32.7876806 L168.381761,26.4972049 L160.786256,26.4972049 L160.786256,24.9024365 L168.82336,24.9024365 L168.82336,18.5233625 L154.162268,18.5233625 L154.162268,41.7361038 Z M41.4941715,52.1122244 C41.4941715,50.0681363 39.8458711,48.3607214 37.7914676,48.3607214 L32.8465664,48.3607214 L32.8465664,59.6633267 L35.1398539,59.6633267 L35.1398539,56.008016 L37.7914676,56.008016 C39.8458711,56.008016 41.4941715,54.2044088 41.4941715,52.1122244 Z M39.0575535,52.1843687 C39.0575535,53.1222445 38.2931243,53.8917836 37.3614762,53.8917836 L35.1398539,53.8917836 L35.1398539,50.4769539 L37.3614762,50.4769539 C38.2931243,50.4769539 39.0575535,51.246493 39.0575535,52.1843687 L39.0575535,52.1843687 Z M47.0601715,56.3446894 C48.7084719,56.3446894 49.6162315,57.8837675 49.6162315,59.1342685 L49.6162315,59.6633267 L51.9095191,59.6633267 L51.9095191,59.0140281 C51.9095191,57.7154309 51.383974,56.2965932 50.1417766,55.6713427 C51.1928667,54.8777555 51.9095191,53.4829659 51.9095191,52.1122244 C51.9095191,50.0681363 50.2612187,48.3607214 48.2068152,48.3607214 L43.261914,48.3607214 L43.261914,59.6633267 L45.5552015,59.6633267 L45.5552015,56.3446894 L47.0601715,56.3446894 Z M49.4729011,52.3527054 C49.4729011,53.3867735 48.6368066,54.2284569 47.6096049,54.2284569 L45.5552015,54.2284569 L45.5552015,50.4769539 L47.6096049,50.4769539 C48.6368066,50.4769539 49.4729011,51.3426854 49.4729011,52.3527054 L49.4729011,52.3527054 Z M59.0521542,60 C62.3248667,60 65.0242572,57.3306613 65.0242572,54.0601202 C65.0242572,50.741483 62.3248667,48.0961924 59.0521542,48.0961924 C55.8033302,48.0961924 53.1039397,50.741483 53.1039397,54.0601202 C53.1039397,57.3306613 55.8033302,60 59.0521542,60 L59.0521542,60 Z M59.0521542,57.7635271 C57.0455276,57.7635271 55.5166693,56.0801603 55.5166693,54.0601202 C55.5166693,52.0160321 57.0455276,50.3326653 59.0521542,50.3326653 C61.0826693,50.3326653 62.6115276,52.0160321 62.6115276,54.0601202 C62.6115276,56.0801603 61.0826693,57.7635271 59.0521542,57.7635271 L59.0521542,57.7635271 Z M69.2525061,57.498998 L69.2525061,50.4769539 L71.45024,50.4769539 C73.5046434,50.4769539 74.9379482,52.0400802 74.9379482,53.987976 C74.9379482,55.9358717 73.5046434,57.498998 71.45024,57.498998 L69.2525061,57.498998 Z M66.9592186,59.6633267 L72.0713387,59.6633267 C75.1529439,59.6633267 77.5178966,57.1142285 77.5178966,53.987976 C77.5178966,50.8617234 75.0812786,48.3607214 72.0713387,48.3607214 L66.9592186,48.3607214 L66.9592186,59.6633267 Z M83.4661112,59.9759519 C85.6877335,59.9759519 87.4793644,58.1723447 87.4793644,55.9358717 L87.4793644,48.3607214 L85.1860769,48.3607214 L85.1860769,56.0320641 C85.1860769,56.993988 84.4216477,57.7635271 83.4661112,57.7635271 C82.5105747,57.7635271 81.7461456,56.993988 81.7461456,56.0320641 L81.7461456,48.3607214 L79.452858,48.3607214 L79.452858,55.9358717 C79.452858,58.1723447 81.2444889,59.9759519 83.4661112,59.9759519 L83.4661112,59.9759519 Z M89.1754417,54.0601202 C89.1754417,57.3547094 91.8748322,60 95.1236562,60 C95.7925318,60 96.4136305,59.8797595 97.0108408,59.6873747 L97.0108408,57.2104208 C96.5808494,57.498998 95.9119738,57.7635271 95.1236562,57.7635271 C93.1170296,57.7635271 91.5881713,56.0801603 91.5881713,54.0601202 C91.5881713,52.0160321 93.1170296,50.3326653 95.1236562,50.3326653 C95.9119738,50.3326653 96.5569609,50.5971944 97.0108408,50.8857715 L97.0108408,48.4088176 C96.4136305,48.1923848 95.7925318,48.0961924 95.1236562,48.0961924 C91.8748322,48.0961924 89.1754417,50.741483 89.1754417,54.0601202 L89.1754417,54.0601202 Z M101.334643,59.6633267 L103.627931,59.6633267 L103.627931,50.5731463 L106.35121,50.5731463 L106.35121,48.3607214 L98.5635875,48.3607214 L98.5635875,50.5731463 L101.334643,50.5731463 L101.334643,59.6633267 Z M108.525055,59.6633267 L110.818343,59.6633267 L110.818343,48.3607214 L108.525055,48.3607214 L108.525055,59.6633267 Z M118.701519,60 C121.974231,60 124.673622,57.3306613 124.673622,54.0601202 C124.673622,50.741483 121.974231,48.0961924 118.701519,48.0961924 C115.452695,48.0961924 112.753304,50.741483 112.753304,54.0601202 C112.753304,57.3306613 115.452695,60 118.701519,60 L118.701519,60 Z M118.701519,57.7635271 C116.694892,57.7635271 115.166034,56.0801603 115.166034,54.0601202 C115.166034,52.0160321 116.694892,50.3326653 118.701519,50.3326653 C120.732034,50.3326653 122.260892,52.0160321 122.260892,54.0601202 C122.260892,56.0801603 120.732034,57.7635271 118.701519,57.7635271 L118.701519,57.7635271 Z M126.250257,59.6633267 L128.400214,59.6633267 L128.400214,51.6072144 L135.303965,59.9519038 L135.303965,48.3607214 L133.154008,48.3607214 L133.154008,54.1322645 L128.256884,48.3607214 L126.250257,48.3607214 L126.250257,59.6633267 Z M86.5753697,9.59519038 L87.3875757,11.5911824 L89.8003053,11.5911824 L84.7120736,0 L79.6238419,11.5911824 L82.0365715,11.5911824 L82.8726659,9.59519038 L86.5753697,9.59519038 Z M85.8587174,7.5511022 L83.5654298,7.5511022 L84.7120736,4.83366733 L85.8587174,7.5511022 Z" sketch:type="MSShapeGroup"></path>
            </g>
        </g>
    </g>
</svg>