<?xml version="1.0" encoding="UTF-8" standalone="no"?>
<svg width="26px" height="31px" viewBox="0 0 26 31" version="1.1" xmlns="http://www.w3.org/2000/svg" xmlns:xlink="http://www.w3.org/1999/xlink" xmlns:sketch="http://www.bohemiancoding.com/sketch/ns">
    <!-- Generator: Sketch 3.2 (9961) - http://www.bohemiancoding.com/sketch -->
    <title>TV</title>
    <desc>Created with Sketch.</desc>
    <defs></defs>
    <g id="Page-2" stroke="none" stroke-width="1" fill="none" fill-rule="evenodd" sketch:type="MSPage">
        <g id="Artboard-2" sketch:type="MSArtboardGroup" transform="translate(-270.000000, -583.000000)" fill="#4990E2">
            <path d="M275,609.708667 L276,609.708667 L276,608.708667 L275,608.708667 L275,609.708667 Z M277,609.708667 L278,609.708667 L278,608.708667 L277,608.708667 L277,609.708667 Z M291.75,588.708667 L288.5,588.708667 C289.056,587.990667 289.382,587.582667 289.776,587.122667 C290.904,585.810667 291.058,584.424667 290.149,583.552667 C289.271,582.708667 287.917,582.871667 286.661,583.934667 C285.461,584.949667 284.451,586.015667 283,587.208667 C281.985,586.099667 280.852,584.940667 279.853,583.942667 C278.775,582.866667 277.62,582.726667 276.717,583.446667 C275.855,584.134667 275.767,585.411667 276.509,586.630667 C276.893,587.259667 277.418,587.789667 278,588.708667 L274.25,588.708667 C271.458,588.708667 270,589.940667 270,592.708667 L270,609.708667 C270.012,612.401667 271.294,613.698667 274,613.708667 L292,613.708667 C294.721,613.698667 295.987,612.392667 296,609.708667 C296.026,604.164667 296.026,598.752667 296,593.208667 C295.987,590.582667 294.376,588.708667 291.75,588.708667 Z M294,609.708667 C294,610.812667 293.104,611.708667 292,611.708667 L274,611.708667 C272.896,611.708667 272,610.812667 272,609.708667 L272,592.708667 C272,591.604667 272.896,590.708667 274,590.708667 L282,590.708667 L278,584.708667 L283,589.708667 L289,584.708667 L284,590.708667 L292,590.708667 C293.104,590.708667 294,591.604667 294,592.708667 L294,609.708667 L294,609.708667 Z M290,592.708667 L276,592.708667 C274.896,592.708667 274,593.604667 274,594.708667 L274,605.708667 C274,606.812667 274.896,607.708667 276,607.708667 L290,607.708667 C291.104,607.708667 292,606.812667 292,605.708667 L292,594.708667 C292,593.604667 291.104,592.708667 290,592.708667 L290,592.708667 Z" id="TV" sketch:type="MSShapeGroup"></path>
        </g>
    </g>
</svg>